<?xml version="1.0" encoding="UTF-8"?>
<!DOCTYPE svg PUBLIC "-//W3C//DTD SVG 1.1//EN" "http://www.w3.org/Graphics/SVG/1.1/DTD/svg11.dtd">
<!-- Creator: CorelDRAW 2019 (64-Bit) -->
<svg xmlns="http://www.w3.org/2000/svg" xml:space="preserve" width="7.683mm" height="7.31mm" version="1.1" style="shape-rendering:geometricPrecision; text-rendering:geometricPrecision; image-rendering:optimizeQuality; fill-rule:evenodd; clip-rule:evenodd"
viewBox="0 0 768.3 731"
 xmlns:xlink="http://www.w3.org/1999/xlink"
 xmlns:xodm="http://www.corel.com/coreldraw/odm/2003">
 <defs>
  <style type="text/css">
   <![CDATA[
    .fil0 {fill:#D4C652;fill-rule:nonzero}
   ]]>
  </style>
 </defs>
 <g id="Layer_x0020_1">
  <metadata id="CorelCorpID_0Corel-Layer"/>
  <g id="_2794006402992">
   <path class="fil0" d="M363.07 427c8.57,38.01 -0.05,74.79 -8.42,110.39 -14.06,59.91 -26.18,111.65 40.88,159.66 20.22,14.49 42.62,22.14 64.79,22.14l0.01 0c27.98,0 55.43,-12.25 75.33,-33.64 23.4,-25.08 33.82,-59.25 28.63,-93.72 -12.28,-81.75 -105.08,-174.31 -181.7,-182.01l-19.52 17.18zm97.26 302.63l-0.01 0c-24.66,0 -49.42,-8.39 -71.62,-24.28 -72.7,-52.06 -58.6,-112.11 -44.99,-170.19 8.31,-35.39 16.89,-71.99 7.74,-108.75l-0.71 -2.9 27.81 -24.52 2.51 0.18c81.42,6.29 181.3,104.57 194.35,191.18 5.62,37.5 -5.78,74.69 -31.28,102.06 -22.06,23.65 -52.59,37.22 -83.8,37.22z"/>
   <path class="fil0" d="M405.81 583.69c-0.25,0 -0.48,-0.03 -0.75,-0.09 -1.69,-0.38 -2.71,-1.99 -2.31,-3.56 6.57,-24.91 9.15,-109.79 -8.54,-141.11 -0.83,-1.44 -0.23,-3.2 1.32,-3.96 1.5,-0.78 3.42,-0.22 4.25,1.23 18.65,33.03 16.02,118.98 9.09,145.24 -0.34,1.33 -1.64,2.25 -3.06,2.25z"/>
   <path class="fil0" d="M486.78 577.1l-0.1 0c-1.72,-0.06 -3.09,-1.41 -3.06,-3.03 0.68,-21.9 -3.48,-96.45 -85.29,-136.56 -1.53,-0.73 -2.14,-2.51 -1.31,-3.96 0.77,-1.43 2.69,-2 4.24,-1.23 85.03,41.68 89.35,119.18 88.67,141.92 -0.04,1.6 -1.46,2.86 -3.15,2.86z"/>
   <path class="fil0" d="M449.81 655.05c-0.62,0 -1.25,-0.12 -1.85,-0.35 -2.4,-0.95 -3.52,-3.55 -2.51,-5.78 24.13,-52.98 -0.23,-152.5 -52.15,-212.96 -1.62,-1.91 -1.28,-4.68 0.74,-6.2 2.04,-1.5 5,-1.23 6.64,0.68 53.8,62.67 78.78,166.36 53.47,221.92 -0.76,1.67 -2.52,2.69 -4.34,2.69z"/>
   <path class="fil0" d="M312.67 393.23c-124.76,0 -235.77,73.87 -257.39,140.18 -12.44,38.18 2.96,72.11 44.57,98.14 16.81,10.54 34.07,15.88 51.24,15.88 96.32,0 174.8,-163.72 188.17,-235.84 -2.46,-3.75 -8.46,-12.9 -11.78,-17.99 -4.93,-0.23 -9.89,-0.37 -14.81,-0.37zm-161.58 264.64c-19.44,0 -38.77,-5.95 -57.5,-17.65 -45.44,-28.43 -62.83,-67.45 -49.03,-109.85 27.42,-84.11 161.2,-154.65 286.53,-147.03l2.93 0.17 1.53 2.33c3.06,4.74 14.35,21.95 14.35,21.95l1.1 1.66 -0.34 1.91c-11.76,67.89 -90.97,246.51 -199.57,246.51z"/>
   <path class="fil0" d="M127.95 555.24c-1.87,0 -3.65,-1.04 -4.4,-2.78 -0.93,-2.27 0.23,-4.83 2.67,-5.72 66.25,-24.48 148.89,-82.92 192.25,-135.95 1.58,-1.97 4.57,-2.33 6.62,-0.84 2.06,1.49 2.48,4.24 0.9,6.18 -44.26,54.14 -128.66,113.82 -196.3,138.8 -0.58,0.2 -1.16,0.31 -1.74,0.31z"/>
   <path class="fil0" d="M235.75 556.23c-0.99,0 -1.95,-0.42 -2.57,-1.25 -1.01,-1.32 -0.68,-3.15 0.75,-4.08 35.29,-23.33 76.35,-95.38 85.21,-138 0.33,-1.62 2.03,-2.71 3.69,-2.33 1.71,0.31 2.83,1.86 2.49,3.45 -9.14,43.93 -50.31,116.93 -87.77,141.66 -0.55,0.38 -1.18,0.55 -1.8,0.55z"/>
   <path class="fil0" d="M164.76 468.54c-1.75,0 -3.15,-1.31 -3.15,-2.94 0,-1.62 1.4,-2.95 3.15,-2.95 42.33,0 125.14,-27.39 155.42,-51.44 1.36,-1.05 3.34,-0.88 4.44,0.33 1.13,1.25 0.98,3.1 -0.35,4.15 -31.14,24.69 -116.09,52.85 -159.51,52.85z"/>
   <path class="fil0" d="M415.86 393.31c11.42,1.2 19.78,5.94 27.9,10.54 3.33,1.88 6.65,3.8 10.26,5.43 58.23,26.46 115.45,40.44 165.46,40.44 48.65,0 87.2,-13.8 105.75,-37.84 13.62,-17.67 16.08,-40.2 7.11,-65.17 -16.02,-44.67 -58.88,-70.29 -117.56,-70.29 -72.51,0 -151.1,39.21 -200.82,100.03l1.9 16.86zm203.62 66.87c-51.71,0 -110.61,-14.36 -170.37,-41.52 -3.92,-1.77 -7.57,-3.82 -11.18,-5.88 -8.68,-4.93 -16.19,-9.17 -27.19,-9.31l-4.99 -0.06 -3.38 -29.95 1.33 -1.66c51.67,-64.28 134.52,-105.84 211.08,-105.84 63.81,0 110.52,28.23 128.16,77.41 10.17,28.31 7.19,54.12 -8.62,74.61 -20.97,27.2 -61.77,42.2 -114.84,42.2z"/>
   <path class="fil0" d="M687.26 377.43c-1.45,0 -2.88,-0.6 -3.81,-1.79 -35.79,-45.31 -180.92,-33.71 -233.88,-0.5 -2.13,1.36 -5.09,0.85 -6.56,-1.2 -1.46,-2.02 -0.88,-4.75 1.28,-6.12 56.88,-35.71 207.69,-46.92 246.76,2.6 1.54,1.96 1.1,4.72 -1,6.16 -0.84,0.58 -1.81,0.85 -2.79,0.85z"/>
   <path class="fil0" d="M638.98 414.64c-0.84,0 -1.69,-0.32 -2.31,-0.91 -34.9,-34.57 -146.8,-47.44 -189.1,-39.37 -1.86,0.23 -3.39,-0.71 -3.73,-2.28 -0.34,-1.6 0.75,-3.15 2.46,-3.48 43.04,-8.15 157.37,3.9 194.96,41.07 1.2,1.21 1.14,3.06 -0.11,4.16 -0.62,0.54 -1.4,0.81 -2.17,0.81z"/>
   <path class="fil0" d="M446.93 374.43c-0.67,0 -1.3,-0.19 -1.87,-0.59 -1.39,-0.96 -1.69,-2.8 -0.66,-4.11 29.92,-37.57 133.56,-68.78 181.69,-54.58 1.65,0.47 2.58,2.12 2.06,3.68 -0.52,1.54 -2.32,2.44 -3.93,1.92 -46.39,-13.52 -146,16.37 -174.77,52.48 -0.62,0.78 -1.57,1.2 -2.52,1.2z"/>
   <path class="fil0" d="M383.82 337.86c5.19,0.41 10.46,0.26 14.02,-1.11 55.74,-21.77 105.85,-114.46 105.1,-194.45 -0.29,-31.05 -9.23,-86.31 -65.86,-107.35 -12.43,-4.6 -24.99,-6.94 -37.35,-6.94 -67.06,0 -115.6,68.04 -115.6,113.92 0,62.69 35.43,169.62 90.97,194.45l8.72 1.48zm52.7 20.55l-64.94 -12.21c-66.12,-29.38 -98.65,-146.72 -98.65,-204.27 0,-49.52 50.56,-124.36 126.8,-124.36 13.77,0 27.73,2.57 41.5,7.68 46.46,17.28 72.35,58.8 72.91,116.96 0.78,84.25 -50.45,178.54 -110.08,203.4l32.46 12.8z"/>
   <path class="fil0" d="M387.26 316.5c-0.2,0 -0.4,-0.01 -0.61,-0.03 -2.59,-0.32 -4.42,-2.53 -4.08,-4.95 8.46,-60.6 13.19,-138.69 11.81,-194.32 -0.07,-2.43 2,-4.45 4.61,-4.51 2.51,0.46 4.78,1.88 4.84,4.31 1.4,56.01 -3.38,134.65 -11.88,195.66 -0.32,2.21 -2.35,3.84 -4.69,3.84z"/>
   <path class="fil0" d="M387.26 315.03c-0.7,0 -1.42,-0.22 -2,-0.67 -1.34,-1.01 -1.53,-2.87 -0.43,-4.13 29.55,-33.68 57.93,-99.23 60.73,-140.29 0.1,-1.58 1.66,-3.13 3.34,-2.72 1.73,0.1 3.05,1.48 2.95,3.11 -2.87,42.05 -31.92,109.16 -62.15,143.62 -0.63,0.71 -1.53,1.08 -2.44,1.08z"/>
   <path class="fil0" d="M387.26 315.03c-1.19,0 -2.32,-0.63 -2.85,-1.68l-1.87 -3.74c-18.43,-36.85 -43.69,-87.27 -40.04,-145.78 0.08,-1.56 1.47,-2.77 3.13,-2.77 0.05,0 0.12,0 0.18,0.01 1.75,0.09 3.06,1.49 2.95,3.11 -3.53,57 21.34,106.69 39.48,142.94l1.88 3.72c0.73,1.48 0.05,3.23 -1.52,3.91 -0.43,0.2 -0.89,0.28 -1.34,0.28z"/>
   <path class="fil0" d="M253.97 358.35c34.9,0 55.85,4.91 67.09,7.53 1.25,0.3 2.57,0.61 3.72,0.86l5.4 -17.4c-19.13,-75.21 -136.2,-157.21 -224.95,-157.21 -38.57,0 -67.91,15.7 -84.82,45.4 -11.77,20.66 -11.7,40.52 0.2,59.04 27.36,42.5 105.47,65.44 165.06,65.44 7.74,0 15.3,-0.39 22.44,-1.14 16.08,-1.67 31.51,-2.52 45.86,-2.52zm73.87 19.37c-2.28,0 -4.99,-0.64 -9.5,-1.69 -10.78,-2.53 -30.84,-7.24 -64.37,-7.24 -13.96,0 -28.94,0.84 -44.61,2.47 -7.54,0.8 -15.53,1.2 -23.69,1.2 -62.66,0 -145.16,-24.72 -174.67,-70.51 -13.86,-21.58 -14.03,-45.53 -0.48,-69.34 18.99,-33.32 51.73,-50.94 94.71,-50.94 95.37,0 216.79,85.67 236.21,166.66l0.3 1.33 -8.27 26.68 -5.63 1.38z"/>
   <path class="fil0" d="M316.55 352.82c-0.68,0 -1.36,-0.19 -1.93,-0.62 -21.86,-16.01 -83.25,-21.31 -103.82,-12.13 -1.51,0.69 -3.45,0.1 -4.2,-1.39 -0.76,-1.46 -0.08,-3.22 1.49,-3.92 22.29,-9.9 86.52,-4.67 110.4,12.81 1.36,1 1.61,2.84 0.53,4.12 -0.62,0.76 -1.52,1.13 -2.47,1.13z"/>
   <path class="fil0" d="M316.55 354.3c-1.38,0 -2.76,-0.58 -3.7,-1.67 -34.31,-40.34 -106.03,-61.09 -158.2,-63.31 -2.6,-0.1 -4.61,-2.15 -4.5,-4.6 0.13,-2.36 2.23,-4.2 4.73,-4.2l0.21 0c54.21,2.29 129.03,24.13 165.17,66.63 1.61,1.9 1.27,4.68 -0.78,6.19 -0.84,0.64 -1.88,0.96 -2.93,0.96z"/>
   <path class="fil0" d="M314.99 351.04c-1.25,0 -2.44,-0.71 -2.93,-1.84 -13.45,-31.17 -56.04,-71.33 -85.98,-81.13 -1.62,-0.53 -2.5,-2.19 -1.91,-3.73 0.57,-1.54 2.28,-2.36 4,-1.79 31.88,10.39 75.49,51.43 89.73,84.43 0.65,1.52 -0.13,3.23 -1.74,3.84 -0.39,0.14 -0.78,0.22 -1.17,0.22z"/>
   <path class="fil0" d="M379.59 315.77c-34.95,0 -63.39,26.54 -63.39,59.17 0,32.64 28.44,59.2 63.39,59.2 34.96,0 63.4,-26.56 63.4,-59.2 0,-32.63 -28.44,-59.17 -63.4,-59.17zm0 125.72c-39.29,0 -71.27,-29.84 -71.27,-66.55 0,-36.69 31.98,-66.51 71.27,-66.51 39.32,0 71.27,29.82 71.27,66.51 0,36.71 -31.95,66.55 -71.27,66.55z"/>
   <path class="fil0" d="M422.19 374.94c0,21.99 -19.09,39.75 -42.59,39.75 -23.5,0 -42.56,-17.76 -42.56,-39.75 0,-21.95 19.06,-39.72 42.56,-39.72 23.5,0 42.59,17.77 42.59,39.72z"/>
  </g>
 </g>
</svg>
