<?xml version="1.0" encoding="UTF-8"?>
<!DOCTYPE svg PUBLIC "-//W3C//DTD SVG 1.1//EN" "http://www.w3.org/Graphics/SVG/1.1/DTD/svg11.dtd">
<!-- Creator: CorelDRAW 2019 (64-Bit) -->
<svg xmlns="http://www.w3.org/2000/svg" xml:space="preserve" width="55.024mm" height="28.804mm" version="1.1" style="shape-rendering:geometricPrecision; text-rendering:geometricPrecision; image-rendering:optimizeQuality; fill-rule:evenodd; clip-rule:evenodd"
viewBox="0 0 5502.4 2880.4"
 xmlns:xlink="http://www.w3.org/1999/xlink"
 xmlns:xodm="http://www.corel.com/coreldraw/odm/2003">
 <defs>
  <style type="text/css">
   <![CDATA[
    .fil1 {fill:#A76E3F}
    .fil0 {fill:#2B2A29;fill-rule:nonzero}
    .fil2 {fill:#A76E3F;fill-rule:nonzero}
   ]]>
  </style>
 </defs>
 <g id="Layer_x0020_1">
  <metadata id="CorelCorpID_0Corel-Layer"/>
  <path class="fil0" d="M22.69 2310.6l417.69 0c5.86,55.73 11.83,111.45 17.78,167.18l-16.04 1.89 -0.28 -1.52c-13.23,-65.6 -36.34,-102.47 -67.11,-122.92 -30.78,-20.43 -69.43,-24.59 -113.58,-24.59l-88.69 0 0 248.83c33.11,-0.04 67.17,-1.11 93.62,-11.37 26.53,-10.32 45.5,-30.03 48.1,-67.57l0.11 -1.58 13.85 0 0 180.54 -13.85 0 -0.11 -1.56c-2.6,-38.06 -21.57,-57.84 -48.1,-68.09 -26.42,-10.2 -60.51,-11.07 -93.62,-11.13l0 146.17c0,30.98 2.04,51.67 10.75,65.04 8.58,13.22 23.99,19.43 50.74,21.69l1.54 0.13 0 13.81 -214.47 0 0 -13.81 1.58 -0.13c26.36,-1.87 41.77,-8.1 50.46,-21.39 8.77,-13.5 11,-34.36 11,-65.34l0 -333.88c0,-30.43 -2.23,-51.06 -11,-64.5 -8.69,-13.3 -24.1,-19.69 -50.52,-21.94l-1.52 -0.13 0 -13.83 1.67 0zm551.42 68.99c44.29,-45.42 107.77,-75.05 190.2,-75.05 82.74,0 146.17,29.55 190.39,74.9 50.91,52.27 76.32,125.44 76.32,198.66 0,73.17 -25.41,146.39 -76.32,198.62 -44.22,45.34 -107.65,74.9 -190.39,74.9 -82.43,0 -145.91,-29.59 -190.2,-75.07 -50.91,-52.21 -76.52,-125.35 -76.52,-198.45 0,-73.14 25.61,-146.28 76.52,-198.51zm71.73 365.55c36.84,48.93 88.84,81.89 154.94,81.89 46.07,0 80.77,-20.97 104.6,-54.19 27.12,-37.8 40.32,-91.49 40.32,-148.41 0,-74.44 -22.3,-154.33 -64.07,-212.25 -35.76,-49.57 -85.88,-83.06 -148.45,-83.06 -49.41,0 -86.08,20.92 -111.07,54.18 -28.7,38.12 -42.18,92.4 -42.18,149.99 0,74.32 22.47,154.17 65.91,211.85zm915.37 61.07c5.08,-2.13 9.92,-5.1 14.37,-8.43l1.26 -0.97 8.79 10.55 -1.02 1.08c-12.63,13.48 -27.48,24.69 -43.44,32.4 -15.11,7.37 -31.24,11.56 -47.39,11.56 -14.5,0 -29.24,-3.6 -43.36,-11.52 -13,-7.27 -25.53,-18.19 -36.94,-33.33l-66.83 -90.03c-13.94,-18.91 -24.27,-31.22 -37.12,-38.66 -12.81,-7.47 -28.31,-10.25 -52.69,-10.25l-53.02 0 0 76.18c0,30.94 2.04,51.69 10.73,65.06 8.58,13.25 23.99,19.5 50.76,21.76l1.52 0.13 0 13.81 -214.45 0 0 -13.81 1.56 -0.13c26.42,-1.87 41.77,-8.14 50.48,-21.47 8.77,-13.48 11,-34.41 11,-65.35l0 -333.79c0,-30.43 -2.23,-51.06 -11,-64.5 -8.71,-13.3 -24.12,-19.69 -50.48,-21.94l-1.56 -0.13 0 -13.83 240.17 0c110.98,0 208.96,48.3 208.96,177.87 0,45.93 -12.1,81.62 -32.42,108.7 -21.66,28.82 -52.56,47.73 -87.92,58.7 11.1,2.28 20.54,6.44 30.66,14.33 12.06,9.37 25.07,24.09 43.04,47.35l55.43 72.14c5.28,6.75 10.96,11.65 16.69,14.87 6.15,3.43 12.42,5.03 18.44,5.03 5.45,0 10.76,-1.3 15.78,-3.38zm-357.39 -414.2l0 253.52 87.95 0c30.5,0 64.72,-12.81 89.01,-44.48 19.3,-25.14 32.37,-62.18 32.37,-114.1 0,-51.76 -12.83,-88.45 -32.13,-113.24 -23.9,-30.66 -57.73,-43.07 -89.25,-43.07l-26.59 0c-20.15,0 -35.63,0.89 -45.85,8.92 -10.23,8.03 -15.51,23.42 -15.51,52.45zm388.3 -81.41l431.37 0c7.23,62.59 14.55,125.22 21.6,187.85l-16.08 2.8 -0.3 -1.63c-13.59,-80.87 -36.33,-123.16 -66.63,-145.17 -29.88,-21.66 -67.39,-23.77 -110.83,-23.81l0 414.39c0,30.91 2.04,51.56 10.73,64.93 8.64,13.18 24,19.39 50.79,21.65l1.52 0.13 0 13.81 -214.47 0 0 -13.81 1.55 -0.13c26.42,-2.26 41.77,-8.47 50.49,-21.69 8.79,-13.33 11.03,-33.98 11.03,-64.89l0 -414.39c-43.44,0.04 -80.95,2.15 -110.83,23.81 -30.3,22.01 -53.03,64.3 -66.64,145.17l-0.27 1.63 -16.08 -2.8c7.03,-62.63 14.35,-125.26 21.58,-187.85l1.47 0zm832.64 12.29l0 -12.29 200.01 0 0 13.87 -1.55 0.09c-30.98,2.25 -52.25,13.39 -65.69,31.52 -13.55,18.19 -19.32,43.48 -19.32,73.94l0 230.84c0,59.48 -21.9,105.06 -55.55,136.84 -38.71,36.47 -92.95,54.7 -147.37,54.7 -54.14,0 -108.49,-18.27 -147.32,-54.9 -33.65,-31.72 -55.6,-77.28 -55.6,-136.64l0 -249.86c0,-30.43 -2.22,-51.06 -11.05,-64.5 -8.69,-13.3 -24.06,-19.69 -50.46,-21.94l-1.52 -0.13 0 -13.83 214.45 0 0 13.83 -1.52 0.13c-26.81,2.25 -42.18,8.68 -50.78,21.94 -8.7,13.4 -10.78,34.04 -10.78,64.5l0 249.86c0,45.55 14.97,79.85 38.01,103.47 26.74,27.48 64.45,40.7 102.4,40.7 39.73,0 80.13,-14.35 109.12,-42.07 25.22,-24.1 41.85,-58.37 41.85,-102.1l0 -230.84c0,-30.46 -5.79,-55.75 -19.39,-73.94 -13.56,-18.13 -35.05,-29.27 -66.42,-31.52l-1.52 -0.09 0 -1.58zm566.16 0l0 -12.29 200.05 0 0 13.87 -1.54 0.09c-31.39,2.25 -52.64,13.39 -66.01,31.52 -13.44,18.23 -19.02,43.55 -19.02,74.03l0 424.55 -26.05 0 -326.36 -440.03 0 311.42c0,30.46 5.59,55.8 19.03,74.03 13.38,18.13 34.63,29.27 66,31.53l1.56 0.13 0 13.81 -200.01 0 0 -13.86 1.55 -0.08c31.36,-1.87 52.58,-13.01 65.95,-31.26 13.44,-18.28 19.08,-43.84 19.08,-74.3l0 -317.96c0,-25.14 -6.75,-45.37 -20.64,-59.63 -13.36,-13.77 -33.48,-22.06 -60.62,-23.9l-1.56 -0.09 0 -13.87 147.58 0 287.59 384.63 0 -265.12c0,-30.48 -5.58,-55.8 -19.04,-74.03 -13.37,-18.13 -34.61,-29.27 -65.98,-31.52l-1.56 -0.09 0 -1.58zm644.78 322.78l14.52 1.71 -20.82 198.17 -419.36 0 0 -13.81 1.56 -0.13c26.4,-1.87 41.77,-8.1 50.47,-21.39 8.78,-13.5 11.01,-34.36 11.01,-65.34l0 -333.88c0,-30.43 -2.23,-51.06 -11.01,-64.5 -8.7,-13.3 -24.11,-19.69 -50.51,-21.94l-1.52 -0.13 0 -13.83 419.32 0c6.08,55.7 12,111.45 17.82,167.18l-16.04 1.89 -0.3 -1.52c-13.18,-65.6 -36.3,-102.47 -67.11,-122.92 -30.76,-20.43 -69.43,-24.59 -113.54,-24.59l-88.71 0 0 236.68c33.09,-0.03 67.2,-1.11 93.72,-11.12 26.66,-10.03 45.81,-29.18 48.76,-65.57l0.13 -1.56 13.14 0c-3.04,58.4 -6.04,116.84 -9.31,175.24l-13.7 0 -0.13 -1.54c-2.98,-36.99 -20.04,-56.16 -44.46,-66.11 -24.25,-9.94 -55.86,-10.81 -88.15,-10.85l0 178.22c0,29.11 5.28,44.7 15.31,52.92 10.05,8.23 25.12,9.32 44.52,9.32l38.74 0c44.07,0 80.54,-6.36 109.41,-31.83 28.94,-25.57 50.41,-70.43 64.42,-147.43l0.26 -1.52 1.56 0.18zm342.36 -266.08c44.29,-45.42 107.77,-75.05 190.2,-75.05 82.69,0 146.17,29.55 190.37,74.9 50.95,52.27 76.35,125.44 76.35,198.66 0,73.17 -25.4,146.39 -76.35,198.62 -44.2,45.34 -107.68,74.9 -190.37,74.9 -82.43,0 -145.91,-29.59 -190.2,-75.07 -50.93,-52.21 -76.51,-125.35 -76.51,-198.45 0,-73.14 25.58,-146.28 76.51,-198.51zm71.73 365.55c36.86,48.93 88.84,81.89 154.9,81.89 46.07,0 80.78,-20.97 104.62,-54.19 27.15,-37.8 40.33,-91.49 40.33,-148.41 0,-74.44 -22.29,-154.33 -64.06,-212.25 -35.78,-49.57 -85.87,-83.06 -148.47,-83.06 -49.4,0 -86.06,20.92 -111.05,54.18 -28.7,38.12 -42.23,92.4 -42.23,149.99 0,74.32 22.52,154.17 65.96,211.85zm732.37 -422.25l0 -12.29 200.01 0 0 13.87 -1.53 0.09c-31.36,2.25 -52.61,13.39 -66,31.52 -13.42,18.23 -19.07,43.55 -19.07,74.03l0 424.55 -26.04 0 -326.32 -440.03 0 311.42c0,30.46 5.58,55.8 19.03,74.03 13.38,18.13 34.63,29.27 66,31.53l1.55 0.13 0 13.81 -200.04 0 0 -13.86 1.59 -0.08c31.34,-1.87 52.58,-13.01 65.95,-31.26 13.46,-18.28 19.04,-43.84 19.04,-74.3l0 -317.96c0,-25.14 -6.75,-45.37 -20.6,-59.63 -13.36,-13.77 -33.48,-22.06 -60.62,-23.9l-1.56 -0.09 0 -13.87 147.54 0 287.63 384.63 0 -265.12c0,-30.48 -5.58,-55.8 -19.04,-74.03 -13.35,-18.13 -34.62,-29.27 -65.97,-31.52l-1.55 -0.09 0 -1.58zm644.72 322.78l14.56 1.71 -20.84 198.17 -419.32 0 0 -13.81 1.54 -0.13c26.38,-1.87 41.77,-8.1 50.46,-21.39 8.79,-13.5 11.02,-34.36 11.02,-65.34l0 -333.88c0,-30.43 -2.23,-51.06 -11.02,-64.5 -8.73,-13.3 -24.08,-19.69 -50.5,-21.94l-1.5 -0.13 0 -13.83 419.32 0c6.02,55.7 11.99,111.45 17.8,167.18l-16.08 1.89 -0.29 -1.52c-13.19,-65.6 -36.29,-102.47 -67.08,-122.92 -30.76,-20.43 -69.42,-24.59 -113.56,-24.59l-88.69 0 0 236.68c33.09,-0.03 67.17,-1.11 93.72,-11.12 26.66,-10.03 45.77,-29.18 48.77,-65.57l0.11 -1.56 13.15 0c-3.06,58.4 -6.08,116.84 -9.31,175.24l-13.72 0 -0.11 -1.54c-2.96,-36.99 -20.04,-56.16 -44.44,-66.11 -24.27,-9.94 -55.88,-10.81 -88.17,-10.85l0 178.22c0,29.11 5.3,44.7 15.31,52.92 10.05,8.23 25.12,9.32 44.53,9.32l38.73 0c44.03,0 80.54,-6.36 109.41,-31.83 28.94,-25.57 50.41,-70.43 64.37,-147.43l0.31 -1.52 1.52 0.18z"/>
  <path class="fil1" d="M2963.63 46.56c0,0 119.41,22.69 219.23,78.37l0 505.93 -219.03 116.84 -0.2 -701.14z"/>
  <path class="fil1" d="M2522.66 35.81c0,0 94.07,-21.47 217.93,-18.3l1.23 609.61 -220.44 121.16 1.28 -712.47z"/>
  <path class="fil1" d="M2964.07 1471.63l0 22.45c0,0 -63.96,50.95 -162.24,230.46l-60.25 0 0 -1096.18 222.23 120.33 0.26 722.94z"/>
  <path class="fil1" d="M2519.63 1458.77l0 45.88c0,0 -64.07,-58.88 -105.69,-93.96l0.52 0.32c-42.14,-34.26 -81.34,-69.6 -117.21,-105.85l0 -676 2.22 -1.22 220 119.13 0.16 711.7z"/>
  <polygon class="fil1" points="2299.45,627.94 2297.28,629.16 2297.28,626.73 "/>
  <path class="fil1" d="M3408.27 752.15l-222.22 -120.34 0 646.97c99.75,-106.01 173.42,-218.25 222.31,-329.79l-0.09 -196.84z"/>
  <path class="fil1" d="M2300.97 627.12l-1.52 0.8 -2.18 1.24 -216.87 119.14 1.38 -464.84c0,0 79.12,-109.7 218.38,-171.16l0.81 514.82z"/>
  <path class="fil1" d="M3408.07 332.2c0,-0.14 102.21,152.57 66.95,385.78l-66.75 34.82 -0.2 -420.6z"/>
  <path class="fil1" d="M2074.6 747.05l-94.55 -51.22c10.73,98.72 41.95,202.68 94.64,306.3l-0.09 -255.08z"/>
  <polygon class="fil2" points="2765.44,1815.23 2638.53,2012.91 2892.36,2012.91 "/>
 </g>
</svg>
