<?xml version="1.0" encoding="UTF-8"?>
<!DOCTYPE svg PUBLIC "-//W3C//DTD SVG 1.1//EN" "http://www.w3.org/Graphics/SVG/1.1/DTD/svg11.dtd">
<!-- Creator: CorelDRAW 2019 (64-Bit) -->
<svg xmlns="http://www.w3.org/2000/svg" xml:space="preserve" width="28.294mm" height="11.869mm" version="1.1" style="shape-rendering:geometricPrecision; text-rendering:geometricPrecision; image-rendering:optimizeQuality; fill-rule:evenodd; clip-rule:evenodd"
viewBox="0 0 2829.4 1186.9"
 xmlns:xlink="http://www.w3.org/1999/xlink"
 xmlns:xodm="http://www.corel.com/coreldraw/odm/2003">
 <defs>
  <style type="text/css">
   <![CDATA[
    .fil0 {fill:white;fill-rule:nonzero}
   ]]>
  </style>
 </defs>
 <g id="Layer_x0020_1">
  <metadata id="CorelCorpID_0Corel-Layer"/>
  <path class="fil0" d="M380.03 637.14c-0.82,0.64 1.96,12.53 -7.01,19.78 -44.96,36.29 -90.49,79.51 -139.89,108.28 -89.95,-252.01 -178.92,-504.92 -264.43,-758.54l200.77 0 210.56 630.48z"/>
  <path class="fil0" d="M722.81 656.84c11.28,-7.69 34.8,-21.22 28.82,4.25l-185.1 513.34 -184.9 2.86c-15.7,-9.74 -41.34,-130.89 -50.57,-155.96l122.47 -128.02 24.32 49.14c10.75,-38.46 14.5,-79.79 39.21,-113.29 22.17,-30.05 168.84,-147.13 205.75,-172.32z"/>
  <path class="fil0" d="M615.08 489.37l156.7 -482.71 205.67 0 -137.12 394.04c-54.38,15.51 -173.53,63.25 -225.25,88.67z"/>
  <path class="fil0" d="M917.09 714.46c-15.54,0 -28.34,-4.83 -38.62,-14.71 -10.28,-9.65 -15.31,-22.07 -15.31,-37.24 0,-15.17 5.03,-27.81 15.31,-37.69 10.28,-9.88 23.08,-14.94 38.62,-14.94 15.08,0 27.88,5.06 38.39,14.94 10.51,9.88 15.76,22.52 15.76,37.69 0,14.48 -5.25,26.9 -15.76,36.78 -10.51,10.11 -23.31,15.17 -38.39,15.17zm-43.41 459.7l0 -393.27 87.06 0 0 393.27 -87.06 0zm397.92 9.65c-53.24,0 -97.12,-11.95 -131.39,-36.09 -34.5,-24.13 -51.87,-58.15 -52.56,-102.51l82.26 -12.18c4.8,56.31 39.54,84.35 103.98,84.35 22.62,0 40.9,-4.59 54.84,-13.79 13.94,-9.19 21.02,-22.52 21.02,-39.76 0,-14.02 -4.34,-24.6 -13.26,-31.26 -8.91,-6.67 -24.22,-12.18 -45.7,-16.55l-45.01 -7.35c-21.02,-3.68 -38.62,-7.82 -52.79,-12.41 -14.39,-4.6 -28.79,-11.5 -43.18,-20.46 -14.4,-8.97 -25.37,-20.69 -32.45,-35.63 -7.32,-14.94 -10.97,-32.87 -10.97,-53.78 0,-35.17 14.62,-63.21 43.87,-84.13 29.25,-20.68 69.24,-31.03 119.74,-31.03 48.22,0 86.61,10.58 114.94,31.49 28.1,21.15 45.25,48.73 50.96,82.75l-78.15 19.53c-10.74,-44.82 -40.45,-67.34 -89.35,-67.34 -23.76,0 -42.27,4.14 -55.3,12.41 -13.02,8.51 -19.65,20.23 -19.65,35.4 0,15.17 4.8,26.2 14.62,33.32 9.6,7.13 26.51,12.65 50.51,17.02l45.24 8.04c41.82,7.13 74.72,18.85 98.72,35.63 23.99,16.78 35.87,44.13 35.87,82.05 0,38.39 -15.54,68.27 -46.39,89.87 -30.85,21.61 -71.06,32.41 -120.42,32.41zm432.43 0c-80.2,0 -120.19,-43.21 -120.19,-129.64l0 -199.5 -60.32 0 0 -73.78 62.83 0 20.11 -115.85 65.35 0 0 115.85 155.62 0 0 73.78 -155.62 0 0 196.98c0,36.31 13.26,54.47 39.54,54.47 24.67,0 47.07,-22.75 66.95,-68.26l67.64 34.93c-33.37,74.02 -80.67,111.02 -141.91,111.02zm373.71 0c-44.56,0 -80.66,-11.26 -108.31,-33.56 -27.65,-22.29 -41.59,-52.4 -41.59,-90.33 0,-34.7 14.4,-63.89 43.19,-88.03 28.79,-24.13 64.89,-36.08 108.31,-36.08 44.56,0 82.26,14.24 112.88,42.97l0 -47.8c0,-28.27 -7.08,-50.11 -21.25,-65.51 -14.39,-15.4 -34.73,-22.98 -61.01,-22.98 -53.24,0 -86.15,27.35 -99.17,81.82l-79.75 -17.01c10.74,-42.06 31.99,-75.39 63.75,-99.75 31.77,-24.13 71.07,-36.32 118.37,-36.32 51.64,0 92.32,13.56 122.25,40.92 29.94,27.35 44.79,67.11 44.79,119.52l0 242.49 -84.78 0 0 -49.42c-28.56,39.3 -67.64,59.07 -117.68,59.07zm16.23 -64.82c38.61,0 71.52,-19.54 98.25,-58.38l0 -12.18c-26.73,-32.41 -59.64,-48.5 -98.25,-48.5 -22.63,0 -40.91,5.52 -54.85,16.55 -13.94,11.03 -21.02,25.28 -21.02,42.52 0,17.7 6.85,32.18 20.57,43.21 13.71,11.27 32.22,16.78 55.3,16.78zm465.56 64.82c-44.56,0 -80.66,-11.26 -108.31,-33.56 -27.65,-22.29 -41.59,-52.4 -41.59,-90.33 0,-34.7 14.4,-63.89 43.19,-88.03 28.79,-24.13 64.89,-36.08 108.31,-36.08 44.56,0 82.26,14.24 112.88,42.97l0 -47.8c0,-28.27 -7.08,-50.11 -21.25,-65.51 -14.39,-15.4 -34.73,-22.98 -61.01,-22.98 -53.24,0 -86.15,27.35 -99.17,81.82l-79.75 -17.01c10.74,-42.06 31.99,-75.39 63.75,-99.75 31.77,-24.13 71.07,-36.32 118.37,-36.32 51.64,0 92.32,13.56 122.25,40.92 29.94,27.35 44.79,67.11 44.79,119.52l0 242.49 -84.78 0 0 -49.42c-28.56,39.3 -67.64,59.07 -117.68,59.07zm16.23 -64.82c38.61,0 71.52,-19.54 98.25,-58.38l0 -12.18c-26.73,-32.41 -59.64,-48.5 -98.25,-48.5 -22.63,0 -40.91,5.52 -54.85,16.55 -13.94,11.03 -21.02,25.28 -21.02,42.52 0,17.7 6.85,32.18 20.57,43.21 13.71,11.27 32.22,16.78 55.3,16.78z"/>
  <path class="fil0" d="M2774.88 389.58c0,0 -1743.31,-293.47 -2463.4,582.49l-78.35 -206.87c0,0 88.88,-704.73 2541.75,-375.62z"/>
 </g>
</svg>
