<?xml version="1.0" encoding="UTF-8"?>
<!DOCTYPE svg PUBLIC "-//W3C//DTD SVG 1.1//EN" "http://www.w3.org/Graphics/SVG/1.1/DTD/svg11.dtd">
<!-- Creator: CorelDRAW 2019 (64-Bit) -->
<svg xmlns="http://www.w3.org/2000/svg" xml:space="preserve" width="6.2228mm" height="2.6104mm" version="1.1" style="shape-rendering:geometricPrecision; text-rendering:geometricPrecision; image-rendering:optimizeQuality; fill-rule:evenodd; clip-rule:evenodd"
viewBox="0 0 622.28 261.04"
 xmlns:xlink="http://www.w3.org/1999/xlink"
 xmlns:xodm="http://www.corel.com/coreldraw/odm/2003">
 <defs>
  <style type="text/css">
   <![CDATA[
    .fil0 {fill:white;fill-rule:nonzero}
   ]]>
  </style>
 </defs>
 <g id="Layer_x0020_1">
  <metadata id="CorelCorpID_0Corel-Layer"/>
  <path class="fil0" d="M156.16 145.38c-0.12,0.09 0.28,1.8 -1.01,2.85 -6.48,5.23 -13.04,11.46 -20.16,15.61 -12.96,-36.32 -25.79,-72.77 -38.11,-109.32l28.93 0 30.35 90.86z"/>
  <path class="fil0" d="M205.56 148.22c1.63,-1.11 5.02,-3.06 4.15,0.61l-26.67 73.98 -26.65 0.42c-2.26,-1.41 -5.96,-18.87 -7.29,-22.48l17.65 -18.45 3.51 7.08c1.55,-5.54 2.09,-11.5 5.65,-16.33 3.19,-4.33 24.33,-21.2 29.65,-24.83z"/>
  <path class="fil0" d="M190.03 124.08l22.59 -69.56 29.64 0 -19.76 56.78c-7.84,2.24 -25.01,9.12 -32.47,12.78z"/>
  <path class="fil0" d="M233.56 156.52c-2.24,0 -4.08,-0.69 -5.57,-2.12 -1.48,-1.39 -2.2,-3.18 -2.2,-5.36 0,-2.19 0.72,-4.01 2.2,-5.44 1.49,-1.42 3.33,-2.15 5.57,-2.15 2.17,0 4.02,0.73 5.53,2.15 1.52,1.43 2.27,3.25 2.27,5.44 0,2.08 -0.75,3.87 -2.27,5.3 -1.51,1.45 -3.36,2.18 -5.53,2.18zm-6.26 66.25l0 -56.67 12.55 0 0 56.67 -12.55 0zm57.35 1.39c-7.67,0 -14,-1.72 -18.94,-5.2 -4.97,-3.47 -7.47,-8.38 -7.57,-14.77l11.86 -1.76c0.69,8.12 5.69,12.16 14.98,12.16 3.26,0 5.89,-0.66 7.9,-1.99 2.01,-1.32 3.03,-3.24 3.03,-5.73 0,-2.02 -0.62,-3.54 -1.91,-4.5 -1.28,-0.96 -3.49,-1.76 -6.58,-2.39l-6.49 -1.06c-3.03,-0.53 -5.57,-1.12 -7.61,-1.79 -2.07,-0.66 -4.15,-1.65 -6.22,-2.94 -2.08,-1.3 -3.66,-2.99 -4.68,-5.14 -1.05,-2.15 -1.58,-4.74 -1.58,-7.75 0,-5.07 2.11,-9.11 6.32,-12.12 4.22,-2.98 9.98,-4.48 17.26,-4.48 6.95,0 12.48,1.53 16.56,4.54 4.06,3.05 6.53,7.03 7.35,11.93l-11.26 2.81c-1.55,-6.46 -5.83,-9.7 -12.88,-9.7 -3.43,0 -6.09,0.59 -7.97,1.79 -1.88,1.22 -2.83,2.91 -2.83,5.1 0,2.18 0.69,3.77 2.11,4.8 1.38,1.03 3.82,1.82 7.27,2.45l6.52 1.16c6.03,1.03 10.77,2.72 14.23,5.14 3.46,2.41 5.17,6.36 5.17,11.82 0,5.53 -2.24,9.84 -6.68,12.95 -4.45,3.12 -10.25,4.67 -17.36,4.67zm62.32 0c-11.56,0 -17.32,-6.22 -17.32,-18.68l0 -28.75 -8.69 0 0 -10.63 9.05 0 2.9 -16.7 9.42 0 0 16.7 22.43 0 0 10.63 -22.43 0 0 28.39c0,5.23 1.91,7.85 5.7,7.85 3.55,0 6.78,-3.28 9.65,-9.84l9.74 5.03c-4.81,10.67 -11.62,16 -20.45,16zm53.86 0c-6.42,0 -11.62,-1.62 -15.61,-4.83 -3.98,-3.21 -5.99,-7.55 -5.99,-13.02 0,-5 2.07,-9.21 6.22,-12.69 4.15,-3.48 9.35,-5.2 15.61,-5.2 6.42,0 11.86,2.06 16.27,6.2l0 -6.89c0,-4.08 -1.02,-7.22 -3.06,-9.44 -2.08,-2.22 -5.01,-3.32 -8.8,-3.32 -7.67,0 -12.41,3.95 -14.29,11.8l-11.49 -2.46c1.55,-6.06 4.61,-10.86 9.19,-14.37 4.57,-3.48 10.24,-5.24 17.05,-5.24 7.45,0 13.31,1.96 17.62,5.9 4.32,3.94 6.46,9.67 6.46,17.23l0 34.94 -12.22 0 0 -7.12c-4.12,5.67 -9.75,8.51 -16.96,8.51zm2.34 -9.34c5.56,0 10.31,-2.81 14.16,-8.41l0 -1.76c-3.85,-4.67 -8.6,-6.99 -14.16,-6.99 -3.26,0 -5.9,0.8 -7.91,2.39 -2,1.59 -3.03,3.64 -3.03,6.13 0,2.55 0.99,4.63 2.97,6.22 1.97,1.63 4.64,2.42 7.97,2.42zm67.09 9.34c-6.42,0 -11.62,-1.62 -15.61,-4.83 -3.98,-3.21 -5.99,-7.55 -5.99,-13.02 0,-5 2.08,-9.21 6.23,-12.69 4.14,-3.48 9.35,-5.2 15.61,-5.2 6.42,0 11.85,2.06 16.26,6.2l0 -6.89c0,-4.08 -1.02,-7.22 -3.06,-9.44 -2.07,-2.22 -5,-3.32 -8.79,-3.32 -7.68,0 -12.42,3.95 -14.29,11.8l-11.5 -2.46c1.55,-6.06 4.61,-10.86 9.19,-14.37 4.58,-3.48 10.24,-5.24 17.06,-5.24 7.44,0 13.3,1.96 17.62,5.9 4.31,3.94 6.45,9.67 6.45,17.23l0 34.94 -12.22 0 0 -7.12c-4.11,5.67 -9.74,8.51 -16.96,8.51zm2.34 -9.34c5.57,0 10.31,-2.81 14.16,-8.41l0 -1.76c-3.85,-4.67 -8.59,-6.99 -14.16,-6.99 -3.26,0 -5.89,0.8 -7.9,2.39 -2.01,1.59 -3.03,3.64 -3.03,6.13 0,2.55 0.99,4.63 2.96,6.22 1.98,1.63 4.65,2.42 7.97,2.42z"/>
  <path class="fil0" d="M501.3 109.7c0,0 -251.24,-42.29 -355.02,83.95l-11.29 -29.81c0,0 12.81,-101.57 366.31,-54.14z"/>
 </g>
</svg>
