<?xml version="1.0" encoding="UTF-8"?>
<!DOCTYPE svg PUBLIC "-//W3C//DTD SVG 1.1//EN" "http://www.w3.org/Graphics/SVG/1.1/DTD/svg11.dtd">
<!-- Creator: CorelDRAW 2019 (64-Bit) -->
<svg xmlns="http://www.w3.org/2000/svg" xml:space="preserve" width="9.477mm" height="3.975mm" version="1.1" style="shape-rendering:geometricPrecision; text-rendering:geometricPrecision; image-rendering:optimizeQuality; fill-rule:evenodd; clip-rule:evenodd"
viewBox="0 0 947.7 397.5"
 xmlns:xlink="http://www.w3.org/1999/xlink"
 xmlns:xodm="http://www.corel.com/coreldraw/odm/2003">
 <defs>
  <style type="text/css">
   <![CDATA[
    .fil0 {fill:#263241;fill-rule:nonzero}
   ]]>
  </style>
 </defs>
 <g id="Layer_x0020_1">
  <metadata id="CorelCorpID_0Corel-Layer"/>
  <path class="fil0" d="M116.74 221.95c-0.27,0.22 0.65,4.15 -2.32,6.55 -14.88,12.02 -29.96,26.33 -46.31,35.85 -29.78,-83.43 -59.23,-167.15 -87.54,-251.11l66.47 0 69.7 208.71z"/>
  <path class="fil0" d="M230.22 228.48c3.73,-2.55 11.52,-7.03 9.54,1.41l-61.28 169.94 -61.21 0.95c-5.2,-3.23 -13.68,-43.34 -16.74,-51.64l40.55 -42.38 8.04 16.27c3.56,-12.73 4.81,-26.42 12.99,-37.5 7.33,-9.95 55.89,-48.71 68.11,-57.05z"/>
  <path class="fil0" d="M194.56 173.04l51.87 -159.8 68.09 0 -45.39 130.44c-18.01,5.14 -57.45,20.94 -74.57,29.36z"/>
  <path class="fil0" d="M294.54 247.55c-5.15,0 -9.38,-1.59 -12.79,-4.87 -3.4,-3.19 -5.07,-7.3 -5.07,-12.32 0,-5.03 1.67,-9.21 5.07,-12.48 3.41,-3.27 7.64,-4.95 12.79,-4.95 4.99,0 9.23,1.68 12.71,4.95 3.48,3.27 5.22,7.45 5.22,12.48 0,4.79 -1.74,8.9 -5.22,12.17 -3.48,3.35 -7.72,5.02 -12.71,5.02zm-14.38 152.19l0 -130.2 28.83 0 0 130.2 -28.83 0zm131.74 3.19c-17.63,0 -32.15,-3.95 -43.5,-11.94 -11.42,-7.99 -17.17,-19.25 -17.4,-33.94l27.23 -4.03c1.59,18.64 13.09,27.92 34.43,27.92 7.49,0 13.54,-1.52 18.15,-4.56 4.62,-3.05 6.96,-7.46 6.96,-13.17 0,-4.64 -1.44,-8.14 -4.39,-10.35 -2.95,-2.2 -8.02,-4.03 -15.13,-5.47l-14.9 -2.44c-6.96,-1.22 -12.78,-2.59 -17.47,-4.11 -4.77,-1.52 -9.54,-3.8 -14.3,-6.77 -4.77,-2.97 -8.4,-6.85 -10.74,-11.79 -2.43,-4.95 -3.63,-10.89 -3.63,-17.81 0,-11.64 4.84,-20.92 14.52,-27.85 9.68,-6.85 22.92,-10.27 39.64,-10.27 15.96,0 28.67,3.5 38.05,10.42 9.3,7 14.98,16.13 16.87,27.4l-25.87 6.46c-3.56,-14.83 -13.39,-22.29 -29.58,-22.29 -7.87,0 -14,1.37 -18.31,4.11 -4.31,2.81 -6.5,6.69 -6.5,11.72 0,5.02 1.59,8.67 4.84,11.03 3.18,2.36 8.77,4.18 16.72,5.63l14.97 2.66c13.85,2.36 24.74,6.24 32.69,11.8 7.94,5.55 11.87,14.61 11.87,27.16 0,12.71 -5.14,22.6 -15.35,29.75 -10.22,7.16 -23.53,10.73 -39.87,10.73zm143.16 0c-26.56,0 -39.79,-14.3 -39.79,-42.91l0 -66.05 -19.97 0 0 -24.43 20.8 0 6.66 -38.35 21.63 0 0 38.35 51.52 0 0 24.43 -51.52 0 0 65.21c0,12.02 4.39,18.03 13.09,18.03 8.17,0 15.58,-7.53 22.16,-22.6l22.39 11.57c-11.04,24.5 -26.7,36.75 -46.97,36.75zm123.71 0c-14.75,0 -26.7,-3.73 -35.85,-11.11 -9.16,-7.38 -13.77,-17.34 -13.77,-29.9 0,-11.49 4.76,-21.15 14.3,-29.14 9.53,-7.99 21.48,-11.95 35.85,-11.95 14.75,0 27.24,4.72 37.37,14.23l0 -15.83c0,-9.36 -2.34,-16.59 -7.03,-21.68 -4.77,-5.1 -11.5,-7.61 -20.2,-7.61 -17.63,0 -28.52,9.05 -32.83,27.09l-26.4 -5.64c3.55,-13.92 10.59,-24.95 21.1,-33.02 10.52,-7.99 23.53,-12.02 39.19,-12.02 17.1,0 30.56,4.49 40.47,13.54 9.91,9.06 14.83,22.22 14.83,39.57l0 80.28 -28.07 0 0 -16.36c-9.45,13.01 -22.39,19.55 -38.96,19.55zm5.37 -21.45c12.79,0 23.68,-6.47 32.53,-19.33l0 -4.03c-8.85,-10.73 -19.74,-16.06 -32.53,-16.06 -7.49,0 -13.54,1.83 -18.15,5.48 -4.62,3.65 -6.96,8.37 -6.96,14.08 0,5.85 2.27,10.65 6.81,14.3 4.54,3.73 10.66,5.56 18.3,5.56zm154.13 21.45c-14.75,0 -26.7,-3.73 -35.86,-11.11 -9.15,-7.38 -13.76,-17.34 -13.76,-29.9 0,-11.49 4.76,-21.15 14.29,-29.14 9.54,-7.99 21.49,-11.95 35.86,-11.95 14.75,0 27.23,4.72 37.37,14.23l0 -15.83c0,-9.36 -2.34,-16.59 -7.04,-21.68 -4.76,-5.1 -11.49,-7.61 -20.19,-7.61 -17.63,0 -28.52,9.05 -32.83,27.09l-26.41 -5.64c3.56,-13.92 10.6,-24.95 21.11,-33.02 10.52,-7.99 23.53,-12.02 39.19,-12.02 17.09,0 30.56,4.49 40.47,13.54 9.91,9.06 14.83,22.22 14.83,39.57l0 80.28 -28.07 0 0 -16.36c-9.46,13.01 -22.39,19.55 -38.96,19.55zm5.37 -21.45c12.79,0 23.68,-6.47 32.53,-19.33l0 -4.03c-8.85,-10.73 -19.74,-16.06 -32.53,-16.06 -7.49,0 -13.54,1.83 -18.15,5.48 -4.62,3.65 -6.96,8.37 -6.96,14.08 0,5.85 2.27,10.65 6.81,14.3 4.53,3.73 10.66,5.56 18.3,5.56z"/>
  <path class="fil0" d="M909.56 140c0,0 -577.13,-97.15 -815.51,192.84l-25.94 -68.49c0,0 29.42,-233.3 841.45,-124.35z"/>
 </g>
</svg>
