<?xml version="1.0" encoding="UTF-8"?>
<!DOCTYPE svg PUBLIC "-//W3C//DTD SVG 1.1//EN" "http://www.w3.org/Graphics/SVG/1.1/DTD/svg11.dtd">
<!-- Creator: CorelDRAW 2019 (64-Bit) -->
<svg xmlns="http://www.w3.org/2000/svg" xml:space="preserve" width="8.4666mm" height="8.4666mm" version="1.1" style="shape-rendering:geometricPrecision; text-rendering:geometricPrecision; image-rendering:optimizeQuality; fill-rule:evenodd; clip-rule:evenodd"
viewBox="0 0 846.66 846.66"
 xmlns:xlink="http://www.w3.org/1999/xlink"
 xmlns:xodm="http://www.corel.com/coreldraw/odm/2003">
 <defs>
  <style type="text/css">
   <![CDATA[
    .fil0 {fill:#FEFEFE}
    .fil1 {fill:#86776F}
   ]]>
  </style>
 </defs>
 <g id="Layer_x0020_1">
  <metadata id="CorelCorpID_0Corel-Layer"/>
  <circle class="fil0" cx="423.27" cy="424.56" r="423.33"/>
  <g id="_2533128734976">
   <path class="fil1" d="M509.83 593.6c0,-2.27 2.59,-4.87 4.86,-4.87 11.66,0 42.14,-1.22 51.55,0.98 2.25,9.66 0.97,48.59 0.97,61.27l-57.38 0 0 -57.38zm-164.37 0.97c0,-2.63 0.47,-2.68 0.98,-4.86 9.41,-2.2 39.89,-0.98 51.54,-0.98 2.27,0 4.87,2.6 4.87,4.87l0 57.38 -57.39 0 0 -56.41zm-15.56 -1.95l0 58.36 -110.87 0c-15.81,0 -29.18,-8.31 -29.18,-22.37l0 -81.7 251.9 0 0 101.15c0,5.01 -9.6,2.92 -23.34,2.92l0 -57.38c0,-10.18 -9.14,-20.43 -19.45,-20.43l-49.61 0c-9.96,0 -19.45,9.67 -19.45,19.45zm-93.36 -94.33l205.21 0 0 33.06 -241.2 0 16.28 -17.76c4.23,-4.21 12.87,-15.3 19.71,-15.3zm187.7 -160.48l227.58 0c2.63,0 2.68,0.47 4.87,0.97 0,5.27 -12.93,58.52 -15.18,68.47 -1.21,5.37 -4.07,19.07 -9.14,19.07l-186.73 0c-2.63,0 -2.68,-0.47 -4.86,-0.98 -4.72,-20.25 -12.49,-47.98 -16.46,-67.18 -0.84,-4.09 -1.52,-6.91 -2.63,-11.02 -1.04,-3.82 -2.83,-9.33 2.55,-9.33zm39.88 -104.06l150.75 0c10.53,0 6.17,9.52 2.33,24.7l-10.31 42.21c-1.31,5.23 -4.53,15.63 -4.67,21.59l-126.43 0 -20.08 -82.1c-0.56,-5.05 3.28,-6.4 8.41,-6.4zm51.54 -38.91c0,9.31 10.64,7.79 16.54,7.79l0 15.56c-13.9,0 -72.04,-1.89 -81.06,2.58 -16.63,8.23 -9.67,26.44 -6.28,40.01 1.41,5.63 14.29,56.7 14.4,61.47l-34.04 0c-11.87,0 -20.43,8.34 -20.43,18.48 0,6.35 11.48,48.87 13.21,56.82 2.22,10.22 4.31,18.23 6.8,28.21 1.07,4.28 1.48,5.51 3.98,8.66l0.89 1.06c13.88,15.51 12.08,-15.7 12.08,47.24l-206.19 0c-8.27,0 -14.4,5.11 -18.72,9.48 -4.05,4.1 -42.55,41.35 -42.55,44.99l0 91.42c0,21.91 19.5,37.93 45.71,37.93l390 0c15.78,0 27.23,-8.97 27.23,-24.31l0 -65.17c0,-4.7 -3.07,-7.78 -7.78,-7.78 -8.85,0 -7.8,7.78 -7.78,16.54l0.02 50.58c0.16,18.31 -5.3,14.58 -38.92,14.58l0 -58.36c0,-10.06 -9.38,-19.45 -19.45,-19.45l-49.6 0c-10.24,0 -19.45,10.44 -19.45,20.43l0 57.38 -35.01 0c-2.25,0 -2.92,-0.68 -2.92,-2.92l0 -206.18 165.33 0 0 100.17c0,8.23 6.49,7.78 9.73,7.78 7.6,0 5.83,-14.34 5.83,-22.37l0 -86.56c9.95,-0.82 13.98,-8.33 15.82,-17.25 1.81,-8.75 4.57,-18.02 6.76,-27.28l9.51 -40.09c1.68,-6.93 2.93,-8.43 2.93,-16.52 0,-23.33 -35.94,-17.51 -54.47,-17.51l9.93 -41.62c1.68,-6.72 9.52,-36.81 9.52,-42.02 0,-14.41 -12,-20.42 -26.25,-20.42l-63.22 0 0 -15.56c6.03,0 17.5,1.46 17.5,-7.79 0,-4.56 -4.03,-7.78 -8.75,-7.78l-33.07 0c-4.6,0 -7.78,3.96 -7.78,7.78z"/>
   <path class="fil1" d="M232.65 302.8c-12.37,0 -27.44,-9.58 -32.1,-16.53 20.49,0 29.61,9.46 42.09,-2.66 5.83,-5.67 25.99,-22.08 25.99,-26.52 0,-7.13 -17.13,-18.47 -23.59,-25.04 -3.16,-3.22 -6.32,-4.76 -8.5,-8.03 15.19,-7.29 10.92,-4.85 34.18,3.75l34.87 12.79c4.14,0 17.41,-9.99 21.4,-12.65 7.05,-4.7 13.68,-9.1 21,-14l21.45 -13.57c12.2,-6.58 19.87,3.93 24.65,5.2l0 1.95c-3.03,0.81 -7.28,3.85 -9.92,5.64 -31.87,21.53 -74.93,46.78 -108.33,68.67 -3.37,2.21 -6.15,3.91 -9.56,6 -10.62,6.5 -20.36,15 -33.63,15zm16.53 -100.17c-3.51,0 -15.88,5.86 -19.72,7.51 -17.4,7.45 -20.35,9.84 -7.77,21.92l9.24 8.26c4.39,4.08 15.6,12.81 18.25,16.77 -6.02,4.03 -11.83,11.33 -17.15,14.95 -4.69,3.2 -6.44,1.35 -17.18,-0.07 -11.11,-1.46 -15.31,-3.49 -21.33,0.45 -14.97,9.8 -19.44,13.41 -3.67,25.52 11.04,8.47 20.85,20.42 41.82,20.42 18.19,0 34.17,-11.59 50.01,-21.97l122.09 -77.28c8.43,-5.03 9.77,-5.49 9.77,-11.62 0,-7.72 -27.77,-33.9 -49.93,-21.74 -3.25,1.78 -6.37,3.96 -9.58,5.99l-38.13 25.08c-2.41,1.61 -7.47,5.43 -9.38,6.3 -4.17,1.89 -29.41,-9.51 -34.27,-11.47 -4.05,-1.63 -7.33,-2.71 -11.26,-4.3 -0.9,-0.37 -11.74,-4.72 -11.81,-4.72z"/>
   <path class="fil1" d="M482.6 371.85l115.73 0 0 20.43 -115.73 0 0 -20.43zm-15.56 -6.81l0 34.04c0,4.01 3.26,8.76 6.8,8.76l131.3 0c4.81,0 8.75,-3.95 8.75,-8.76l0 -34.04c0,-4.8 -3.94,-8.75 -8.75,-8.75l-131.3 0c-3.54,0 -6.8,4.74 -6.8,8.75z"/>
   <path class="fil1" d="M239.46 368.93c0,4.17 2.99,7.78 6.8,7.78 4.36,0 17.89,-9.29 21.99,-12.05l51.74 -32.87c3.73,-2.48 7.97,-3.84 7.97,-9.54 0,-4.16 -3,-7.78 -6.81,-7.78 -4.61,0 -53.33,31.76 -63.62,38.5 -8.36,5.48 -18.07,9.26 -18.07,15.96z"/>
   <path class="fil1" d="M225.84 588.73c10.35,0 68.88,1.79 74.11,-1.74 6.79,-4.59 3.48,-13.82 -4.09,-13.82l-73.91 0c-9.46,0 -11.25,15.56 3.89,15.56z"/>
   <path class="fil1" d="M494.27 465.22c0,4.7 3.07,7.78 7.78,7.78l74.89 0c7.18,0 9.45,-15.56 -2.92,-15.56l-71 0c-4.34,0 -8.75,3.94 -8.75,7.78z"/>
   <path class="fil1" d="M214.17 428.26c0,5.49 3.54,7.78 8.75,7.78 3.65,0 16.92,-9.09 20.62,-11.48 4.54,-2.94 18.28,-9.19 18.28,-14.78 0,-5.95 -5.7,-9.91 -10.7,-7.88l-32.68 19.94c-1.94,1.31 -4.27,3.7 -4.27,6.42z"/>
   <path class="fil1" d="M517.61 287.24c4.81,0 8.75,-3.95 8.75,-8.75 0,-7.7 -9.24,-10.9 -14.44,-5.69 -5.2,5.2 -2.01,14.44 5.69,14.44z"/>
   <path class="fil1" d="M549.7 278.49c0,10.56 16.54,13.81 16.54,-1.95 0,-7.35 -16.54,-9.98 -16.54,1.95z"/>
  </g>
 </g>
</svg>
