<?xml version="1.0" encoding="UTF-8"?>
<!DOCTYPE svg PUBLIC "-//W3C//DTD SVG 1.1//EN" "http://www.w3.org/Graphics/SVG/1.1/DTD/svg11.dtd">
<!-- Creator: CorelDRAW 2019 (64-Bit) -->
<svg xmlns="http://www.w3.org/2000/svg" xml:space="preserve" width="8.4666mm" height="8.4666mm" version="1.1" style="shape-rendering:geometricPrecision; text-rendering:geometricPrecision; image-rendering:optimizeQuality; fill-rule:evenodd; clip-rule:evenodd"
viewBox="0 0 846.66 846.66"
 xmlns:xlink="http://www.w3.org/1999/xlink"
 xmlns:xodm="http://www.corel.com/coreldraw/odm/2003">
 <defs>
  <style type="text/css">
   <![CDATA[
    .fil0 {fill:#FEFEFE}
    .fil1 {fill:#86776F}
   ]]>
  </style>
 </defs>
 <g id="Layer_x0020_1">
  <metadata id="CorelCorpID_0Corel-Layer"/>
  <circle class="fil0" cx="423.27" cy="424.56" r="423.33"/>
  <g id="_2532976663520">
   <path class="fil1" d="M439.51 646.25l0 -33.45 122.31 0 0 33.45c0,3.29 0.71,3.7 0.96,6.69l-124.22 0c0.25,-2.99 0.95,-3.4 0.95,-6.69zm-260.86 -363.69l0 -9.21c0.59,-8.46 2.79,-16.87 6.68,-24.62 10.55,-21.08 31.89,-36.3 56.39,-36.3 21.59,0 34.9,5.9 49.45,20.29 23.76,23.5 24.35,63.04 1.42,88.87 -8.71,9.83 -26.73,20.79 -40.36,20.79l0 136.65c0,5.94 5.83,-1.37 17.46,10.25 5.01,5 7.38,10.72 7.38,20.32l0 143.34 98.42 0c-2.93,-12.61 -1.91,-26.85 -1.91,-40.14 -19.61,0 -19.96,-9.53 -25.83,-22.9 -1.99,-4.55 -14.3,-31.28 -14.3,-34.43l0 -338.26c0,-5.17 2.06,-11.97 3.78,-15.33 6.68,-13.05 19.27,-21.94 34.44,-21.94l258 0c20.31,0 38.22,17.48 38.22,36.31l0 339.22c0,3.02 -11.94,29.03 -14.19,34.54 -1.38,3.36 -2.62,5.61 -3.83,8.6 -4.29,10.7 -8.29,14.19 -22.11,14.19 0,13.29 1.02,27.53 -1.91,40.14 8.28,0 16.56,0.01 24.84,0 8.85,-0.02 17.2,-1.36 17.2,7.64 0,5.69 -4.2,8.6 -6.69,8.6l-475.86 0c-2.66,0 -6.69,-4.03 -6.69,-6.69 0,-12.84 8.97,-9.55 32.49,-9.55l0 -147.16c0,-13.36 10.44,-23.89 23.89,-23.89l0 -139.51c-15.06,-0.33 -28.92,-10.38 -38.47,-19.82 -10.83,-10.71 -16.88,-25.12 -17.91,-40zm48.73 367.51l0 -138.55c0,-15.81 7.56,-13.38 23.89,-13.38 5.2,0 8.6,3.39 8.6,8.6l0 146.2 -29.62 0c-2.2,0 -2.87,-0.67 -2.87,-2.87zm350.69 -8.6l0 -28.67 32.49 0c0,41.42 3.78,40.14 -21.02,40.14 -7.87,0 -11.47,-3.61 -11.47,-11.47zm-166.27 11.47c-24.8,0 -21.02,1.28 -21.02,-40.14l32.49 0c0,24.65 4.05,40.14 -11.47,40.14zm-57.33 -89.83l292.4 0 -13.38 32.49 -264.69 0c-4.74,-8.96 -9.61,-22.66 -14.33,-32.49zm109.89 -32.48c0,-4.63 3.02,-7.65 7.64,-7.65l57.34 0c10.09,0 7.64,11.78 7.64,23.89l-72.62 0 0 -16.24zm-17.2 3.82l0 12.42 -97.47 0 0 -318.2c0,-17.75 4.63,-32.49 24.85,-32.49l252.26 0c15.79,0 24.85,10.7 24.85,26.76l0 323.93 -97.47 0c0,-11.84 1.39,-23.8 -6.42,-32.75 -3.37,-3.87 -10.66,-8.34 -17.47,-8.34l-59.24 0c-13.57,0 -23.89,12.44 -23.89,28.67zm-208.31 -304.82c16.81,0 26.72,1.11 39.91,14.55 18.27,18.6 18.09,48.96 0.01,67.41 -14.51,14.81 -37.15,18.96 -55.55,10.11l-10.44 -6.76c-10.36,-9.43 -16.31,-18.81 -17.64,-35.88 -1.04,-13.34 5.3,-24.27 12.7,-33.61 5.5,-6.94 19.21,-15.82 31.01,-15.82z"/>
   <path class="fil1" d="M383.14 426.47l0 -116.58c0,-5.8 4.82,-7.64 10.51,-7.64l214.04 0c5.69,0 10.51,1.84 10.51,7.64l0 116.58c0,2.3 -3.43,5.73 -5.73,5.73l-221.69 0c-3.49,0 -7.64,-2.63 -7.64,-5.73zm-17.2 -117.53l0 116.58c0,12.61 11.53,23.88 25.8,23.88l217.86 0c14.47,0 25.8,-11.47 25.8,-22.93l0 -117.53c0,-11.18 -10.22,-22.93 -23.89,-22.93l-221.68 0c-14.51,0 -23.89,13.14 -23.89,22.93z"/>
   <path class="fil1" d="M383.14 246.83c0,-4.51 -1.76,-17.2 5.73,-17.2l223.6 0c7.49,0 5.73,12.69 5.73,17.2 0,5.51 -7.93,6.69 -12.42,6.69l-210.22 0c-5.35,0 -12.42,-1.87 -12.42,-6.69zm-17.2 -9.56l0 7.65c0,12.6 10.83,24.84 22.93,24.84l223.6 0c11.39,0 22.93,-11.54 22.93,-22.93l0 -11.47c0,-11.39 -11.54,-22.93 -22.93,-22.93l-223.6 0c-12.1,0 -22.93,12.24 -22.93,24.84z"/>
   <path class="fil1" d="M383.14 500.05c0,-20.87 18.99,-20.75 26.53,-14.11 14.59,12.85 -4.84,37.6 -20.71,24.53 -2.72,-2.24 -5.82,-5.77 -5.82,-10.42zm-17.2 -2.87c0,27.68 29.79,42.8 52.15,27.31 10.37,-7.18 15.34,-20.39 12.58,-33.75 -0.58,-2.77 -1.79,-6.52 -3.35,-9.07 -18.64,-30.39 -61.38,-15.05 -61.38,15.51z"/>
   <path class="fil1" d="M586.67 498.14c0,-20.26 31.53,-23.31 31.53,0.95 0,19.88 -31.53,19.39 -31.53,-0.95zm14.33 32.49c10.4,0 18.18,-2.3 25.36,-10 11.05,-11.85 11.93,-27.97 3.15,-41.45 -2.83,-4.35 -8.35,-9.14 -13.59,-11.25 -14.36,-5.78 -27.48,-1.98 -36.34,6.88l-4.72 5.79c-14.22,22.87 3.72,50.03 26.14,50.03z"/>
  </g>
 </g>
</svg>
