<?xml version="1.0" encoding="UTF-8"?>
<!DOCTYPE svg PUBLIC "-//W3C//DTD SVG 1.1//EN" "http://www.w3.org/Graphics/SVG/1.1/DTD/svg11.dtd">
<!-- Creator: CorelDRAW 2019 (64-Bit) -->
<svg xmlns="http://www.w3.org/2000/svg" xml:space="preserve" width="8.4666mm" height="8.4666mm" version="1.1" style="shape-rendering:geometricPrecision; text-rendering:geometricPrecision; image-rendering:optimizeQuality; fill-rule:evenodd; clip-rule:evenodd"
viewBox="0 0 846.66 846.66"
 xmlns:xlink="http://www.w3.org/1999/xlink"
 xmlns:xodm="http://www.corel.com/coreldraw/odm/2003">
 <defs>
  <style type="text/css">
   <![CDATA[
    .fil0 {fill:#FEFEFE}
    .fil1 {fill:#86776F}
   ]]>
  </style>
 </defs>
 <g id="Layer_x0020_1">
  <metadata id="CorelCorpID_0Corel-Layer"/>
  <circle class="fil0" cx="423.27" cy="424.56" r="423.33"/>
  <g id="_2533105785872">
   <path class="fil1" d="M219.93 625.64l406.68 0c14.03,0 22.23,1.45 30.99,7.41 6.29,4.27 13.98,14.54 14.19,24.22l-497.04 0c0.21,-9.68 7.9,-19.95 14.19,-24.22 8.76,-5.96 16.96,-7.41 30.99,-7.41zm199.9 -490.27l6.56 0c6.56,0.88 13.22,4.35 21.95,9.95l120.87 76.82c5.68,3.64 16.73,7.99 16.73,16.03 0,4.42 -4.2,7.91 -9.04,7.91 -4.5,0 -9.69,-4.74 -13.55,-6.78l0 25.98 77.94 0c9.8,0 17.07,6.33 20.73,13.16 3.52,6.55 10.77,44.52 13.16,54.62 4.23,17.89 10.35,30.74 -1.42,43.76 -3.08,3.41 -8.69,6.6 -14.39,7.07l0 73.43 22.59 0c16.95,0 30.5,15.08 30.5,28.24l0 111.84c0,8.85 -5.93,17.56 -11.1,21.66 -7.71,6.11 -11.67,6.58 -25.05,6.58 17.32,25.86 13.56,30.02 13.56,65.52 0,11.69 -10.9,22.59 -22.6,22.59l-108.44 0c-5.28,0 -7.91,-2.64 -7.91,-7.91 0,-12.61 12.97,-9.04 27.11,-9.04 11.67,0 23.35,0 35.02,0 64.28,0 59.87,5.44 59.87,-22.59l-499.3 0c0,18.24 -2.36,22.78 14.65,22.62l256.46 -0.03c6.95,0 75.69,-1.7 80.01,1.33 6.92,4.86 2.39,15.62 -3.19,15.62l-342.28 0c-11.7,0 -22.6,-10.9 -22.6,-22.59 0,-36.39 -3.7,-39.75 13.56,-65.52 -13.66,0 -17.95,-0.6 -25.68,-7.09 -4.89,-4.1 -10.47,-12.67 -10.47,-21.15l0 -111.84c0,-7.23 5.51,-16.1 9.54,-19.83 11.81,-10.93 25.66,-8.41 43.55,-8.41l0 -73.43c-11.19,-0.93 -21.46,-12.13 -21.46,-23.72l11.99 -55.79c3.24,-14.21 5.18,-39.1 27.55,-39.1l77.94 0 0 -25.98c-3.86,2.04 -9.05,6.78 -13.55,6.78 -5.47,0 -9.04,-3.58 -9.04,-9.04 0,-6.31 11.56,-11.5 18.06,-15.83 37.59,-25.02 83.09,-51.45 120.21,-76.35 8.4,-5.63 14.9,-8.68 20.96,-9.49zm-268.8 457.51l0 -100.54c0,-9.12 3.58,-16.95 12.42,-16.95l519.64 0c8.84,0 12.42,7.83 12.42,16.95l0 100.54c0,9.88 -5.93,15.81 -15.81,15.81l-512.86 0c-9.88,0 -15.81,-5.93 -15.81,-15.81zm412.32 -205.6c0,-2.6 0.78,-3.39 3.38,-3.39l75.69 0 0 73.43 -79.07 0 0 -70.04zm-131.04 3.39l56.48 0 0 66.65 -56.48 0 0 -66.65zm-74.56 0l56.48 0 0 66.65 -56.48 0 0 -66.65zm-16.94 -7.91l0 74.56 -40.67 0c0,-19.45 3.45,-35.02 -9.04,-35.02 -11.36,0 -7.91,14.11 -7.91,35.02l-79.07 0 0 -73.43 75.69 0c8.86,0 -4.4,15.82 13.55,15.82 9.06,0 6.78,-18.1 6.78,-23.72 0,-10.17 0,-20.34 0,-30.51 -0.01,-22.27 0.06,-21 14.91,-30.27 10.41,-6.51 98.91,-63.96 103.93,-65.61 7.84,-2.58 13.58,2.37 20.78,7.1l93.31 59.19c6.71,4.18 13.33,7.72 13.33,18.3l0 123.13 -40.67 0 0 -74.56c0,-4.13 -3.11,-9.03 -6.77,-9.03l-151.38 0c-3.66,0 -6.77,4.9 -6.77,9.03zm173.96 -99.41l125.34 0.06c8.27,1.19 7.17,6.16 9.99,18.24l12.65 58.52c0,4.32 -3.34,6.78 -7.9,6.78l-91.5 0c0,-38.67 5.13,-48.52 -19.65,-65.08l-28.93 -18.52zm-231.58 46.32l0 37.28 -91.5 0c-13.17,0 -6.28,-15.49 -3.87,-26.46l11.83 -52.57c1.17,-2.6 0.7,-4.52 10.03,-4.65l122.09 0.08c-0.2,0.18 -0.55,0.15 -0.65,0.49l-28.25 18.07c-9.6,5.84 -19.68,15.05 -19.68,27.76zm74.56 -64.39l-57.61 0 0 -35.02c0,-3.82 26.3,-18.58 29.32,-20.39l15.2 -9.64c5.64,-3.7 10.22,-6.44 15.8,-10.19 3,-2.02 4.75,-2.91 7.68,-4.74 7.38,-4.62 49.04,-32.98 55.13,-32.98 6.49,0 53.29,31.51 62.79,37.74l53.21 33.78c10.63,6.11 7.13,4.71 7.13,41.44l-57.61 0c-9.41,0 -47.66,-33.89 -63.26,-33.89 -17.68,0 -22.49,7.66 -36.92,16.18 -6.83,4.03 -26.24,17.71 -30.86,17.71z"/>
   <path class="fil1" d="M522.68 540.91c0,12.67 4.22,20.18 10.32,26.96 0.22,0.25 0.85,0.95 1.08,1.18l3.5 3.28c2.79,2.39 2.55,2.19 6.14,4.02 5.3,2.7 7.74,3.51 14.79,4.49 35.99,5.01 49.7,-47.83 29.69,-47.83 -14.54,0 -23.91,-2.44 -26.45,6.39 -1.48,5.14 1.78,7.45 3.85,10.55l12.43 0c-1.09,13.07 -17.67,18.28 -29.92,8.46 -18.33,-14.7 -0.85,-49.01 24.43,-35.73 19.21,10.1 25.91,-20.17 -12.58,-20.17 -19.97,0 -37.28,18.49 -37.28,38.4z"/>
   <path class="fil1" d="M305.79 519.45c23.39,0 30.94,32.83 10,41.63 -23.62,9.94 -40.57,-18.01 -25.02,-34.06 2.15,-2.22 3.37,-3.57 6.3,-4.99 1.39,-0.68 7.41,-2.58 8.72,-2.58zm-38.41 20.33c0,24.26 18.33,40.67 35.02,40.67l6.78 0c18.31,0 36.14,-17.83 36.14,-36.15 0,-15.71 -3.08,-24.08 -15.52,-34.18 -2.39,-1.94 -2.41,-2.01 -5.52,-3.52 -28.95,-14.05 -56.9,9.08 -56.9,33.18z"/>
   <path class="fil1" d="M189.43 538.65l0 5.65c0,18.32 17.84,36.15 36.15,36.15l6.78 0c8.53,0 23.72,-8.52 23.72,-16.94 0,-4.84 -3.48,-9.04 -7.9,-9.04 -7.47,0 -9.86,9.04 -19.21,9.04 -5.45,0 -12.4,-3.1 -15.53,-5.94 -16.4,-14.88 -1.37,-41.75 19.05,-37.2 1.86,0.42 21.33,12.04 21.33,-4.31 0,-3.04 -0.58,-4.13 -2.09,-5.82 -8.83,-9.86 -43.89,-15.2 -58.57,14.06 -2.25,4.48 -3.73,8.02 -3.73,14.35z"/>
   <path class="fil1" d="M466.2 512.67l0 57.61c0,13.82 15.16,10.17 35.02,10.17 11.67,0 11.67,-16.94 0,-16.94l-16.95 0 0 -13.56c9.64,0 23.72,2.55 23.72,-7.91 0,-11.45 -12.4,-9.03 -23.72,-9.03l0 -13.56 16.95 0c11.63,0 11.24,-16.94 0,-16.94 -19.86,0 -35.02,-3.65 -35.02,10.16z"/>
   <path class="fil1" d="M611.92 511.54l0 59.87c0,12.81 14.89,9.04 36.15,9.04 9,0 9,-16.94 0,-16.94l-18.08 0 0 -13.56 14.69 0c11.64,0 11.24,-16.94 0,-16.94l-14.69 0 0 -13.56c19.6,0 24.86,2.43 24.86,-10.17 0,-9.89 -20.85,-6.77 -33.89,-6.77 -5.47,0 -9.04,3.57 -9.04,9.03z"/>
   <path class="fil1" d="M360.01 511.54l0 59.87c0,12.15 14.73,9.04 30.5,9.04 11.18,0 11.18,-16.94 0,-16.94l-12.43 0 0 -50.84c0,-13.6 -18.07,-13.27 -18.07,-1.13z"/>
   <path class="fil1" d="M414.23 509.28l0 64.39c0,9.73 19.7,6.78 31.63,6.78 9.01,0 9.01,-16.94 0,-16.94l-14.68 0 0 -54.23c0,-9 -16.95,-9 -16.95,0z"/>
  </g>
 </g>
</svg>
