<?xml version="1.0" encoding="UTF-8"?>
<!DOCTYPE svg PUBLIC "-//W3C//DTD SVG 1.1//EN" "http://www.w3.org/Graphics/SVG/1.1/DTD/svg11.dtd">
<!-- Creator: CorelDRAW 2019 (64-Bit) -->
<svg xmlns="http://www.w3.org/2000/svg" xml:space="preserve" width="1.939mm" height="2.441mm" version="1.1" style="shape-rendering:geometricPrecision; text-rendering:geometricPrecision; image-rendering:optimizeQuality; fill-rule:evenodd; clip-rule:evenodd"
viewBox="0 0 193.9 244.1"
 xmlns:xlink="http://www.w3.org/1999/xlink"
 xmlns:xodm="http://www.corel.com/coreldraw/odm/2003">
 <defs>
  <style type="text/css">
   <![CDATA[
    .fil0 {fill:#FEFEFE}
   ]]>
  </style>
 </defs>
 <g id="Layer_x0020_1">
  <metadata id="CorelCorpID_0Corel-Layer"/>
  <g id="_2532732076448">
   <path class="fil0" d="M155.84 237.28l-127.06 0c-12.75,0 -21.49,-8.73 -21.49,-21.5l0 -177.68c0,-12.76 8.73,-21.5 21.49,-21.5l87.89 0 0 32.96c0,9.16 1.82,16.1 6.32,20.91 2.56,2.73 4.21,4.36 7.62,6.23 2.95,1.61 6.57,2.95 10.9,2.95l35.82 0 0 133.75c0,7.58 -1.64,13.08 -5.36,17.08 -3.68,3.96 -8.64,6.8 -16.13,6.8zm-26.75 -211.12l32.12 33.32c1.03,1.17 1.21,1.68 2.38,2.87 1.8,1.82 3.76,3.3 5.14,5.36 -4.85,0 -25.77,0.49 -29.53,-0.55 -2.62,-0.73 -4.62,-1.89 -6.55,-3.96 -4.07,-4.36 -3.56,-8.58 -3.56,-16.5 0,-6.85 0,-13.7 0,-20.54zm-133.74 8.59l0 184.38c0,10.96 8.35,22.22 17.97,26.92 3.07,1.5 7.81,3.17 12.12,3.17l132.79 0c16.98,0 31.04,-15.23 31.04,-32.48l0 -142.82c0,-3.93 -6.66,-8.94 -10.65,-13.71l-8.34 -8.37c-0.95,-1.03 -1.01,-1.38 -1.91,-2.39l-6.2 -6.22c-1.7,-1.67 -2.49,-2.96 -4.05,-4.54 -5.67,-5.73 -10.83,-11.21 -16.5,-16.94l-8.11 -8.61c-0.73,-0.73 -1.23,-1.16 -1.92,-1.9 -1,-1.09 -4.56,-6.1 -6.8,-6.1l-102.22 0c-11.7,0 -27.22,14.75 -27.22,29.61z"/>
   <path class="fil0" d="M86.1 155.6l-23.75 -24.97c-4.85,-4.99 -10.64,-1.01 -10.64,3.48 0,3.62 1.76,4.17 3.54,6.48l33.02 35.29c6.64,4.96 10.07,-2.73 15.14,-7.75 2.02,-1.99 3.3,-3.21 5.07,-5.44 1.52,-1.9 3.5,-3.44 5.21,-5.29 1.07,-1.16 1.24,-1.71 2.37,-2.88l15.3 -16.23c5.42,-6.63 -4.48,-13.84 -9.52,-7.61 -4.61,5.68 -17.1,17.8 -20.05,21.51 -1.14,1.42 -1.8,2.89 -3.75,3.41l0 -55.88c0,-2.15 0.27,-7.72 -0.09,-9.46 -0.9,-4.38 -8.36,-6.68 -11.17,-0.85 -1.33,2.75 -0.68,24.01 -0.68,27.98 0,12.74 0,25.47 0,38.21z"/>
   <path class="fil0" d="M44.07 208.62l96.96 0c7.56,0 7.54,-11.94 0.48,-11.94l-98.4 0c-7.07,0 -7.87,11.94 0.96,11.94z"/>
  </g>
 </g>
</svg>
