<?xml version="1.0" encoding="UTF-8"?>
<!DOCTYPE svg PUBLIC "-//W3C//DTD SVG 1.1//EN" "http://www.w3.org/Graphics/SVG/1.1/DTD/svg11.dtd">
<!-- Creator: CorelDRAW 2019 (64-Bit) -->
<svg xmlns="http://www.w3.org/2000/svg" xml:space="preserve" width="8.4666mm" height="8.4666mm" version="1.1" style="shape-rendering:geometricPrecision; text-rendering:geometricPrecision; image-rendering:optimizeQuality; fill-rule:evenodd; clip-rule:evenodd"
viewBox="0 0 846.66 846.66"
 xmlns:xlink="http://www.w3.org/1999/xlink"
 xmlns:xodm="http://www.corel.com/coreldraw/odm/2003">
 <defs>
  <style type="text/css">
   <![CDATA[
    .fil0 {fill:#FEFEFE}
    .fil1 {fill:#86776F}
   ]]>
  </style>
 </defs>
 <g id="Layer_x0020_1">
  <metadata id="CorelCorpID_0Corel-Layer"/>
  <circle class="fil0" cx="423.27" cy="424.56" r="423.33"/>
  <g id="_2533105777744">
   <path class="fil1" d="M429.2 484c0,7.86 5.51,13.36 13.36,13.36 8.79,0 26.55,-21.08 33.1,-27.63 21.07,-21.07 11.86,-10.61 25.59,-35.13 4.12,-7.37 10.63,-23.14 16.25,-28.69l41.66 -34.86 8.81 65.27c1.78,11.33 20.84,35.19 28.84,46.46 36.14,50.93 17.87,20.62 34.92,90.18 2.28,9.31 4.8,9.24 11.93,13.58l46.61 28.69c7.27,4.38 10.5,8.44 19.49,8.44 7.77,0 10.93,-5.93 10.93,-13.36 0,-9.6 -17.38,-17.11 -24.53,-21.62 -9.95,-6.28 -19.03,-11.97 -29.3,-18.06 -14.1,-8.37 -10.82,-7.23 -15.5,-30.66 -7.34,-36.69 -3.51,-29.46 -18.84,-51.6l-29.13 -41.32c-1.87,-2.57 -2.69,-4.07 -4.38,-6.54 -8.25,-12.05 -4.56,-4.19 -7.91,-27.31l-5.22 -42.15c3.54,1.88 39.4,21.79 42.39,25.62 1.25,1.6 4.05,7.57 4.96,9.62 2.95,6.67 5.57,12.73 8.53,19.4 7.08,15.95 9.93,13.52 28.89,25.76 5.9,3.8 11.29,7.21 17.19,10.75 5.9,3.53 21.05,16.45 29.94,5.53 11.37,-13.99 -11.09,-24.25 -14.1,-26.24 -6.86,-4.54 -14.63,-9.12 -21.8,-13.41 -3.51,-2.11 -6.51,-4.02 -10.52,-6.48 -2.65,-1.63 -2.95,-1.73 -4.5,-4 -0.99,-1.44 -2.62,-5.06 -3.24,-6.48 -1.91,-4.37 -3.02,-7.26 -5.28,-11.72 -10.95,-21.54 -3.5,-17.63 -22.9,-29.33 -7.48,-4.52 -14.29,-8.95 -22.05,-13.18 -8,-4.35 -14.32,-8.38 -22.13,-13.08 -29.38,-17.67 -22.28,-13.93 -44.25,2.95l-49.31 41.78c-6.62,5.09 -15.44,26.88 -19.97,34.68 -2.38,4.1 -3.9,7.17 -6.39,11.83 -6.67,12.49 -42.14,36.8 -42.14,48.95z"/>
   <path class="fil1" d="M125.57 647.96c0,9.2 6.96,14.58 13.36,14.58 7.31,0 42.38,-38.13 49.49,-45.24 14.52,-14.52 10.84,-10.1 25.43,-21.94l19.83 -15.4c16.4,-12.53 16.87,-12.92 27.98,-31.53 2.86,-4.8 5.99,-8.76 9.14,-13.93l43.37 -63.51c2.1,-2.74 3.57,-4.11 4.51,-7.63 5.12,0.42 54.03,25.19 62.75,29.55 10.38,5.19 12.42,3.87 17.42,14.16 25.02,51.43 14.67,33.68 42.92,57.89 10.13,8.68 22.94,49.2 31.91,54.31 8.6,4.89 58.48,26.39 62.16,30.15 1.84,1.89 1.65,2.05 3.2,4.08 6.44,8.39 33.67,46.69 40.76,46.69 11.91,0 20.19,-10.17 10.1,-23.46 -2.32,-3.04 -4.01,-5.44 -6.29,-8.29 -4.42,-5.53 -8.44,-10.46 -12.84,-16.3 -25.88,-34.31 -15.08,-21.66 -48.87,-38.57l-29.61 -14.12c-6.91,-3.78 -16.42,-29.2 -21.4,-38.11 -15.39,-27.5 -25,-18.09 -34.81,-38.06l-10.13 -19.02c-3.35,-6.7 -6.05,-13.05 -9.68,-19.47 -5.18,-9.16 -27.07,-16.52 -36.86,-21.43l-59.77 -28.99c-9.37,-2.81 -13.11,2.39 -17.48,8.82l-36.43 51.02c-8.2,12.29 -15.43,23.87 -23.33,36.18 -19.37,30.19 -11.62,17.93 -43.57,43.87 -27.55,22.36 -18.69,14.88 -45.63,41.82 -5.81,5.81 -27.63,24.69 -27.63,31.88z"/>
   <path class="fil1" d="M267.67 318.83c-13.31,0 -19.64,-0.59 -30.09,-11.2 -21.21,-21.51 -7.01,-62.89 25.23,-62.89l6.08 0c17.49,0 34.29,19.42 33.79,37.55 -0.53,19.05 -15.04,36.54 -35.01,36.54zm-4.86 26.72c59.93,0 84.49,-64.75 49.45,-106.53 -17.35,-20.68 -51.3,-25.33 -76.17,-13.71 -34.51,16.12 -49.14,68.44 -16.28,101.3 9.6,9.6 24.44,18.94 43,18.94z"/>
   <path class="fil1" d="M328.4 521.65c0,7.05 12.42,50.01 20.46,59.7 21.29,25.68 23.8,22.81 29.23,49.71 3.37,16.69 10.27,18.52 30.95,32.2 6.64,4.39 13.5,11.42 21.38,11.42 6.92,0 12.14,-6.39 12.14,-13.36 0,-8.07 -9.61,-12.73 -15.07,-16.5 -6.52,-4.52 -11.87,-8.73 -18.48,-13.1 -7.17,-4.73 -5.54,-6.3 -9.44,-22.14 -1.18,-4.77 -1.52,-8.32 -3.82,-11.97 -11.47,-18.2 -25.2,-23.41 -32.29,-46.65 -2.5,-8.23 -4.76,-15.48 -7.59,-23.99 -1.3,-3.93 -2.24,-8.51 -4.18,-11.6 -6.69,-10.65 -23.29,-5.33 -23.29,6.28z"/>
   <path class="fil1" d="M315.04 343.12c0,11.62 6.14,13.96 19.12,27.02 5.68,5.72 16.06,16.49 25.56,5.51 9.02,-10.41 -1.56,-19.17 -7.94,-25.55 -8.34,-8.32 -14.03,-17.91 -25.81,-17.91 -6,0 -10.93,4.93 -10.93,10.93z"/>
   <path class="fil1" d="M340.54 282.39c0,16.84 25.62,13.36 38.87,13.36 26.18,0 21.2,-26.72 6.07,-26.72 -21.43,0 -44.94,-4.45 -44.94,13.36z"/>
   <path class="fil1" d="M166.87 197.38c0,8.09 27.12,35.22 35.22,35.22 6.5,0 13.36,-6.24 13.36,-12.15 0,-10.62 -28.15,-36.43 -34.01,-36.43 -8.6,0 -14.57,5.02 -14.57,13.36z"/>
   <path class="fil1" d="M131.65 282.39c0,16.78 23.72,12.15 46.15,12.15 14.85,0 15.12,-25.51 -1.22,-25.51 -22.62,0 -44.93,-4.69 -44.93,13.36z"/>
   <path class="fil1" d="M315.04 218.02c0,8.85 4.76,14.58 13.36,14.58 6.89,0 20.99,-16.77 25.81,-21.56 4.39,-4.36 9.03,-7.5 8.72,-14.72 -0.39,-9.18 -12.12,-18.59 -23.34,-7.19 -3.28,3.33 -5.74,5.82 -9.07,9.16 -4.31,4.31 -15.48,12.81 -15.48,19.73z"/>
   <path class="fil1" d="M166.87 367.41c0,4.12 7.57,23.61 26.41,4.56 4.86,-4.91 22.17,-19.48 22.17,-26.42 0,-8.6 -5.73,-13.36 -14.58,-13.36 -6.88,0 -14.88,10.62 -19.13,14.88 -5.02,5.02 -14.87,11.47 -14.87,20.34z"/>
   <path class="fil1" d="M251.88 372.27c0,26.61 -4.48,42.51 14.58,42.51 6,0 10.93,-4.93 10.93,-10.94l0 -35.22c0,-13.69 -25.51,-16.79 -25.51,3.65z"/>
   <path class="fil1" d="M251.88 163.37c0,26.42 -4.31,42.51 14.58,42.51 6,0 10.93,-4.93 10.93,-10.93l0 -36.44c0,-11.06 -25.51,-16.1 -25.51,4.86z"/>
  </g>
 </g>
</svg>
