<?xml version="1.0" encoding="UTF-8"?>
<!DOCTYPE svg PUBLIC "-//W3C//DTD SVG 1.1//EN" "http://www.w3.org/Graphics/SVG/1.1/DTD/svg11.dtd">
<!-- Creator: CorelDRAW 2019 (64-Bit) -->
<svg xmlns="http://www.w3.org/2000/svg" xml:space="preserve" width="8.4666mm" height="8.4666mm" version="1.1" style="shape-rendering:geometricPrecision; text-rendering:geometricPrecision; image-rendering:optimizeQuality; fill-rule:evenodd; clip-rule:evenodd"
viewBox="0 0 846.66 846.66"
 xmlns:xlink="http://www.w3.org/1999/xlink"
 xmlns:xodm="http://www.corel.com/coreldraw/odm/2003">
 <defs>
  <style type="text/css">
   <![CDATA[
    .fil0 {fill:#FEFEFE}
    .fil1 {fill:#86776F}
   ]]>
  </style>
 </defs>
 <g id="Layer_x0020_1">
  <metadata id="CorelCorpID_0Corel-Layer"/>
  <circle class="fil0" cx="423.27" cy="424.56" r="423.33"/>
  <g id="_2533100085872">
   <path class="fil1" d="M432.24 509.99l66.19 0 0 148.07 -66.19 0 0 -148.07zm207.53 97.6l-40.38 0 0 -42.63 43.75 0 0 39.26c0,2.58 -0.79,3.37 -3.37,3.37zm-436.37 -3.37l0 -39.26 42.63 0 0 42.63 -39.26 0c-2.58,0 -3.37,-0.79 -3.37,-3.37zm395.99 -148.07l43.75 0 0 41.5 -43.75 0 0 -41.5zm-395.99 0l42.63 0 0 41.5 -42.63 0 0 -41.5zm127.89 20.19l183.96 0 0 16.83 -183.96 0 0 -16.83zm-16.83 -3.37c0,20.12 -4.01,37.02 16.83,37.02l0 59.46c0,12.02 16.82,11.87 16.82,0l0 -59.46 66.19 0 0 148.07 -66.19 0 0 -49.35c0,-11.6 -16.82,-11.6 -16.82,0l0 49.35 -67.31 0 0 -416.17c0,-29.65 31.36,-24.68 51.6,-24.68 0.5,22.22 16.06,53.79 32.37,68.59 1.39,1.25 1.39,0.93 3.18,2.43 1.57,1.31 1.99,1.97 3.45,3.28 6.31,5.67 15.63,10.96 23.43,14.71 27.25,13.12 63.27,13.12 90.52,0 13.54,-6.52 19.4,-11.52 30.09,-20.39 6.12,-5.08 17.25,-21.64 21.13,-29.35 4.6,-9.17 10.91,-26.05 11.21,-39.27l28.04 0c13.87,0 23.56,12.67 23.56,26.92l0 413.93 -67.31 0 0 -148.07c21.02,0 16.83,-17.98 16.83,-37.02 0,-6.73 -6.72,-13.46 -13.46,-13.46l-190.7 0c-6.74,0 -13.46,6.73 -13.46,13.46zm284.93 -126.75l43.75 0 0 41.5 -43.75 0 0 -41.5zm-395.99 0l42.63 0 0 41.5 -42.63 0 0 -41.5zm-16.82 -2.25l0 43.75c0,10.05 8.11,17.95 17.95,17.95l41.5 0 0 32.53c-16.46,0 -44.2,-2.74 -52.96,4.25 -2.92,2.33 -6.49,6.61 -6.49,11.45l0 43.75c0,10.65 8.6,17.95 19.07,17.95l40.38 0 0 32.53 -43.75 0c-7.42,0 -15.7,8.29 -15.7,15.71l0 44.87c0,7.42 8.28,15.7 15.7,15.7l43.75 0 0 33.65 -93.1 0 0 -335.4c0,-15.29 10.38,-26.92 25.8,-26.92l67.3 0 0 32.53 -40.38 0c-9.03,0 -19.07,7.05 -19.07,15.7zm145.83 -135.73c0,-22.5 10.94,-48.62 26.59,-64.27 2.53,-2.53 3.61,-2.77 6.19,-5.03 2.79,-2.45 2.95,-2.79 6.23,-4.98 5.12,-3.42 8.71,-5.09 14.45,-7.99 35.01,-17.73 81.39,-6.71 106.69,24.19 9.28,11.33 15.09,22.56 18.84,37.25 6.71,26.3 -0.36,57.84 -18.33,78.29 -1.16,1.32 -1.55,1.59 -2.65,2.96 -10.89,13.66 -29.42,23.39 -46.32,27.71 -18.87,4.82 -39.93,2.72 -57.48,-5.49 -5.18,-2.42 -10.06,-4.72 -14.49,-7.95 -19.15,-13.94 -30.85,-29.96 -36.99,-53.87 -1.19,-4.64 -2.73,-15.86 -2.73,-20.82zm-16.83 -8.98l-25.8 0c-24.52,0 -43.75,19.23 -43.75,43.75l0 34.78c-17.84,0 -67.78,-1.91 -81.53,2.6 -14.65,4.81 -28.4,21.51 -28.4,35.54l0 342.13c0,9.58 7.25,16.83 16.83,16.83l540.68 0c9.58,0 16.83,-7.25 16.83,-16.83l0 -342.13c0,-18.03 -18.94,-38.14 -45.99,-38.14l-32.53 0c-5.43,0 -10.1,3.18 -10.1,8.97 0,9.83 8.15,9.02 17.95,8.98 22,-0.1 53.84,-5.01 53.84,26.92l0 335.4 -94.22 0 0 -33.65 44.87 0c7.42,0 15.7,-8.28 15.7,-15.7l0 -43.75c0,-10.39 -8.82,-16.83 -15.7,-16.83l-44.87 0 0 -32.53 41.5 0c10.47,0 19.07,-7.3 19.07,-17.95l0 -43.75c0,-8.64 -10.04,-15.7 -19.07,-15.7l-41.5 0 0 -32.53 42.62 0c9.84,0 17.95,-7.9 17.95,-17.95l0 -43.75c0,-8.65 -10.04,-15.7 -19.07,-15.7l-41.5 0 0 -90.87c0,-17.29 -18.91,-38.14 -43.75,-38.14l-24.68 0c-0.43,-19.34 -12.71,-47.38 -26.08,-61.41 -2.85,-2.99 -3.31,-4.76 -6.26,-7.2 -26.24,-21.78 -43.43,-30.1 -79.84,-30.1 -20.41,0 -41.62,8.25 -56.54,18.61 -11.9,8.25 -12.37,9.87 -20.02,18.12 -2.68,2.89 -3.21,3.4 -5.66,6.69 -10.21,13.71 -20.57,37.14 -20.98,55.29z"/>
   <path class="fil1" d="M366.06 200.39l34.77 0c9.58,0 14.59,-5.01 14.59,-14.59l0 -34.77 15.7 0 0 34.77c0,9.58 5.01,14.59 14.59,14.59l34.77 0 0 15.7 -34.77 0c-9.58,0 -14.59,5.01 -14.59,14.58l0 34.78 -15.7 0 0 -34.78c0,-9.57 -5.01,-14.58 -14.59,-14.58l-34.77 0 0 -15.7zm31.41 -49.36l0 31.41c-49.32,0 -48.24,-3.53 -48.24,35.89 0,20.5 26.66,15.71 48.24,15.71 0,49.32 -3.53,48.23 35.9,48.23 20.49,0 15.7,-26.65 15.7,-48.23 49.32,0 48.24,3.52 48.24,-35.9 0,-20.5 -26.66,-15.7 -48.24,-15.7 0,-49.32 3.53,-48.24 -35.9,-48.24 -9.53,0 -15.7,7.36 -15.7,16.83z"/>
   <path class="fil1" d="M314.46 366.41l75.16 0 0 42.62 -75.16 0 0 -42.62zm-17.95 4.48c0,18.35 -4.97,54.97 15.71,54.97l78.52 0c6.81,0 15.7,-6.39 15.7,-16.83l0 -42.62c0,-9.58 -7.25,-16.83 -16.82,-16.83l-77.4 0c-9.78,0 -15.71,10.82 -15.71,21.31z"/>
   <path class="fil1" d="M456.92 366.41l75.16 0 0 42.62 -75.16 0 0 -42.62zm-16.82 0l0 42.62c0,10.73 9.68,16.83 15.7,16.83l76.28 0c7.98,0 13.76,-4.95 15.91,-11.01 1.18,-3.31 1.85,-47.86 0.89,-51.77 -1.57,-6.38 -6.98,-13.5 -14.56,-13.5l-77.4 0c-9.57,0 -16.82,7.25 -16.82,16.83z"/>
   <path class="fil1" d="M380.64 576.18c0,18.34 -2.11,24.67 11.22,24.67 8.8,0 6.73,-17.5 6.73,-24.67 0,-12.24 -17.95,-12.24 -17.95,0z"/>
   <path class="fil1" d="M447.95 576.18c0,18.34 -2.12,24.67 11.22,24.67 8.8,0 6.73,-17.5 6.73,-24.67 0,-12.24 -17.95,-12.24 -17.95,0z"/>
  </g>
 </g>
</svg>
