<?xml version="1.0" encoding="UTF-8"?>
<!DOCTYPE svg PUBLIC "-//W3C//DTD SVG 1.1//EN" "http://www.w3.org/Graphics/SVG/1.1/DTD/svg11.dtd">
<!-- Creator: CorelDRAW 2019 (64-Bit) -->
<svg xmlns="http://www.w3.org/2000/svg" xml:space="preserve" width="8.4666mm" height="8.4666mm" version="1.1" style="shape-rendering:geometricPrecision; text-rendering:geometricPrecision; image-rendering:optimizeQuality; fill-rule:evenodd; clip-rule:evenodd"
viewBox="0 0 846.66 846.66"
 xmlns:xlink="http://www.w3.org/1999/xlink"
 xmlns:xodm="http://www.corel.com/coreldraw/odm/2003">
 <defs>
  <style type="text/css">
   <![CDATA[
    .fil0 {fill:#FEFEFE}
    .fil1 {fill:#86776F}
   ]]>
  </style>
 </defs>
 <g id="Layer_x0020_1">
  <metadata id="CorelCorpID_0Corel-Layer"/>
  <circle class="fil0" cx="423.27" cy="424.56" r="423.33"/>
  <path class="fil1" d="M370.84 626.35c31.03,14.89 74.25,14.89 105.28,0 0,39.43 11.44,44.26 14.26,54.84l-133.8 0c2.75,-10.27 14.26,-15.57 14.26,-54.84zm-36.09 -345.91c3.68,2.06 14.18,5.76 18.28,6.91 40.11,11.27 77.18,14.84 119.37,5.81 8.59,-1.83 32.86,-8.58 39.6,-12.81 15.67,6.95 32.03,21.69 42.16,34.37 22.22,27.77 31.06,65.33 24.91,100.93 -0.81,4.7 -1.93,9.39 -2.72,14.83 -2.35,16.25 -1.17,31.34 2.62,46.97 5.34,22.03 12.81,27.63 7.6,58.65 -5.61,33.38 4.24,55.12 23.36,77.08 4.32,4.96 8.77,7.47 17.29,17.81 9.49,11.51 18.4,31.14 19.99,50.2 -36.19,0 -72.39,-0.1 -108.58,0 -13.96,0.03 -13.35,1.48 -23.38,-9.52 -16.42,-18.02 -13.9,-34.79 -13.9,-61.77 9.07,-4.8 20.74,-19.16 26.78,-28.05 18.75,-27.62 21.47,-53.47 21.47,-88.2 0,-53.44 6.85,-91.7 -38.68,-125.82 -17.82,-13.35 -43.37,-18.67 -65.85,-14.9 -4.66,0.79 -7.24,1.28 -10.77,2.38 -3.3,1.04 -7.76,3.44 -10.82,3.44 -2.36,0 -47.74,-20.67 -87.44,9.08 -24.06,18.03 -36.02,39.05 -38.62,71.04 -1.73,21.26 -0.87,86.65 4.44,105.12 4.12,14.31 9.25,26.49 16.98,37.86 6.04,8.89 17.71,23.25 26.78,28.05 0,20.1 1.78,34.34 -5.1,48.64 -3.27,6.81 -6.25,10.92 -11.46,15.96 -7.77,7.49 -6.3,6.72 -20.73,6.69 -36.19,-0.1 -72.38,0 -108.57,0 4.11,-49.37 35.35,-58.29 51.61,-87.67 21.37,-38.58 2.7,-60.53 8.58,-89.03 6.68,-32.42 17.65,-33.82 8.1,-87.9 -3.92,-22.21 -2.68,-42.49 3.66,-61.55 1.59,-4.75 2.5,-7.69 4.43,-12.02 4.18,-9.36 10.06,-19.57 16.18,-27.68 9.38,-12.43 27.15,-27.99 42.43,-34.9zm167.28 -23.09c-19.25,9.75 -56.27,15.89 -78.75,15.89 -21.97,0 -59.17,-6.54 -78.33,-15.69 -0.08,-0.26 -0.16,-0.52 -0.24,-0.78 -2.96,-9.41 -2.59,-17.19 1.6,-25.63 1.59,-3.2 3.79,-7.02 6.17,-9.18 3.65,-3.32 6.43,-3.7 10.68,-5.8 0.25,-0.02 0.48,-0.04 0.71,-0.06 0.26,0.13 0.5,0.24 0.63,0.29 33.4,13.94 79.87,14.16 113.64,1.69 1.48,-0.54 1.38,-0.45 3.2,-1.28l1.37 -0.73c0.36,0.03 0.72,0.06 1.09,0.09 4.09,2.02 6.41,2.25 10.09,5.3 2.79,2.31 4.98,6.08 6.77,9.68 3.82,7.69 4.49,17.01 1.53,25.63 -0.05,0.19 -0.11,0.39 -0.16,0.58zm-33.97 -62.14c-7.12,0.96 -34.3,10.3 -69.01,4.59 -5.37,-0.88 -15.25,-4.12 -20.13,-4.64 2.33,-8.73 8.79,-14.23 15.58,-18.92 15.46,-10.67 41.37,-10.78 57.3,-0.43 7.07,4.59 13.87,10.34 16.26,19.4zm-76.21 358.64c0,8.81 16.97,19.08 26.94,19.08l8.98 0c10.58,0 26.94,-10.14 26.94,-20.21 0,-6.06 -6.88,-12.34 -13.47,-12.34 -7.06,0 -10.26,7.85 -17.96,7.85 -7.12,0 -12.02,-7.85 -16.84,-7.85 -8.15,0 -14.59,5.52 -14.59,13.47zm-44.9 -66.23c0,23.04 47.87,23.84 59.73,9.21 4.93,-6.08 3.69,-20.43 -11.46,-20.43 -8.39,0 -2.41,4.48 -19.09,4.48 -9.29,0 -7.74,-4.48 -17.96,-4.48 -5.64,0 -11.22,5.58 -11.22,11.22zm118.98 19.08c42.53,0 39.62,-30.3 20.21,-30.3 -7.8,0 -2.92,4.48 -21.33,4.48 -7,0 -5.4,-4.48 -15.72,-4.48 -9.86,0 -15.48,12.71 -9.22,20.43 3.71,4.57 17.65,9.87 26.06,9.87zm-55 -79.69c0,11.86 -3.1,26.94 13.47,26.94 13.85,0 11.22,-17.98 11.22,-26.94 0,-15.43 -24.69,-14.5 -24.69,0zm-88.34 87.48l0 -75.67c0,-38.53 40.16,-72.81 83.5,-59.38 5.88,1.82 11.11,5.64 17.39,5.64 6.23,0 11.28,-3.67 16.57,-5.37 42.99,-13.82 84.33,19.47 84.33,59.11l0 75.67c0,71.24 -80.54,120.23 -141.49,89.95 -13.28,-6.6 -19.71,-10.41 -29.87,-20.59 -18.5,-18.52 -30.43,-41.19 -30.43,-69.36zm-42.77 -235.79c-7.78,0 -17.72,-3.02 -20.84,-7.68 16.12,-1.34 50.2,-35.42 51.54,-51.54l2.2 0c1.14,4.91 5.48,9.66 5.48,20.84 0,21.19 -17.19,38.38 -38.38,38.38zm52.64 -72.38c-7.04,-13.29 -33.14,-34.07 -39.52,-13.2 -1.79,5.83 -1.94,9.98 -4.18,15.57 -21.42,53.58 -64.88,34.89 -64.88,55.75 0,9.57 11.72,21.18 17.99,25.89 9.69,7.27 15.93,9.41 29.17,12.5 -10.33,15.42 -11.52,15.15 -19.58,35.25 -9.97,24.84 -10.03,37.2 -10.03,63.45 0,17.37 5.49,25.28 5.49,47.16 0,33.3 -18.03,43.86 -11.9,86.47 3.14,21.78 4.78,33.92 -11.43,55.8 -7.72,10.41 -5.81,6.05 -12.07,12.06 -34.45,33.11 -50.33,102.29 -24.92,102.29l473.77 0c7.07,0 12.06,-6.05 12.06,-13.16 0,-32.08 -10.43,-55.95 -24.27,-74.43 -11.63,-15.53 -20.23,-19.06 -29,-32.41 -11.33,-17.25 -10.06,-31.72 -7.35,-49.19 6.69,-43.22 -11.76,-51.58 -11.76,-90.72 0,-16.57 5.48,-27.3 5.48,-43.87 0,-37.78 -4.58,-61.82 -25,-92.35 -9.84,-14.71 -22.41,-28.49 -37.06,-38.6 -3.86,-2.67 -11.65,-8.46 -15.8,-9.43 0,-16.07 6.83,-33.4 -16,-56.38 -0.16,-0.16 -0.39,-0.39 -0.55,-0.54 -9.56,-9.24 -15.82,-8.52 -17.94,-11.68 -0.45,-0.67 -2.5,-7.56 -3.51,-9.65 -11.13,-22.92 -35.49,-39.09 -60.7,-39.09 -20.51,0 -34.59,2.05 -51.57,14.24 -2.21,1.58 -2.59,2.14 -4.66,4.1 -5.4,5.09 -9.07,8.25 -12.88,15.64 -4.77,9.23 -2.88,6.81 -5.4,13.24 -2.54,6.48 0.19,0.16 -11.28,7.37 -2.12,1.33 -3.12,2.23 -4.98,3.79 -2.16,1.81 -3.57,2.67 -5.74,4.13z"/>
 </g>
</svg>
